<svg width="740" height="604" viewBox="0 0 740 604" fill="none" xmlns="http://www.w3.org/2000/svg">
<path d="M713.954 603.62H26.0367C19.2295 603.62 12.7011 600.916 7.88767 596.102C3.07426 591.289 0.370117 584.761 0.370117 577.953V26.0265C0.380714 19.2262 3.08954 12.7081 7.9018 7.90333C12.7141 3.09856 19.2364 0.399894 26.0367 0.399902H713.944C717.315 0.399902 720.654 1.06412 723.768 2.35461C726.883 3.6451 729.713 5.53659 732.096 7.92101C734.48 10.3054 736.37 13.1361 737.659 16.2512C738.949 19.3664 739.612 22.7051 739.61 26.0765V578.003C739.61 584.811 736.906 591.339 732.093 596.152C727.279 600.966 720.751 603.67 713.944 603.67" fill="#EAEAEA"/>
<path d="M524.588 84.0761C527.271 84.0788 529.844 85.1646 531.741 87.0952C533.638 89.0257 534.705 91.6433 534.708 94.3736V184.414H201.886V94.3736C201.886 91.6443 202.951 89.0267 204.846 87.0958C206.742 85.165 209.313 84.0789 211.995 84.0761H524.588ZM524.588 82H211.995C208.772 82.0028 205.682 83.3076 203.404 85.6278C201.125 87.948 199.846 91.0937 199.846 94.3736V186.49H536.748V94.3736C536.748 91.0919 535.467 87.9446 533.187 85.6241C530.906 83.3036 527.813 82 524.588 82V82Z" fill="black"/>
<path d="M199.846 132.646V221.068H169.436V138.979C169.439 137.3 170.095 135.691 171.262 134.504C172.428 133.317 174.009 132.649 175.659 132.646H199.846ZM201.886 130.57H175.659C173.467 130.57 171.366 131.456 169.816 133.033C168.267 134.61 167.396 136.749 167.396 138.979V223.144H201.886V130.57V130.57Z" fill="black"/>
<path d="M561.547 132.646C563.198 132.646 564.782 133.313 565.951 134.5C567.119 135.688 567.777 137.298 567.78 138.979V221.068H537.36V132.646H561.547ZM561.547 130.57H535.32V223.144H569.82V138.979C569.817 136.748 568.945 134.609 567.393 133.032C565.842 131.456 563.739 130.57 561.547 130.57V130.57Z" fill="black"/>
<path d="M534.586 187.206V212.037H201.886V187.206H534.586ZM536.626 185.13H199.846V214.113H536.626V185.13Z" fill="black"/>
<path d="M534.708 160.591V184.829H202.651V160.591H534.708ZM536.748 158.515H200.611V186.905H536.748V158.515Z" fill="black"/>
<path d="M425.301 84.2941V212.047H313.19V84.2941H425.301V84.2941ZM427.341 82.218H311.15V214.123H427.341V82.218Z" fill="black"/>
<path d="M168.263 213.054H568.066" stroke="black" stroke-width="2" stroke-miterlimit="10"/>
<path d="M574.043 298.672V409.297H311.262V344.689H199.713V409.297H166.865V298.672C166.864 297.836 167.025 297.008 167.339 296.236C167.652 295.463 168.113 294.761 168.694 294.17C169.275 293.579 169.965 293.11 170.724 292.791C171.483 292.471 172.297 292.308 173.119 292.309H567.79C569.448 292.309 571.039 292.98 572.212 294.173C573.384 295.366 574.043 296.985 574.043 298.672Z" stroke="black" stroke-width="2" stroke-miterlimit="10"/>
<path d="M311.263 344.689H199.713V474.061H311.263V344.689Z" stroke="black" stroke-width="2" stroke-miterlimit="10"/>
<path d="M311.263 301.33V344.689H199.713V306.447C199.713 305.775 199.843 305.11 200.096 304.489C200.349 303.868 200.719 303.304 201.186 302.829C201.653 302.354 202.208 301.977 202.818 301.719C203.428 301.462 204.082 301.33 204.743 301.33H311.263Z" stroke="black" stroke-width="2" stroke-miterlimit="10"/>
<path d="M426.912 301.361H536.166C537.5 301.361 538.779 301.9 539.722 302.86C540.665 303.819 541.195 305.121 541.195 306.478V409.121H426.943V301.361H426.912Z" stroke="black" stroke-width="2" stroke-miterlimit="10"/>
<path d="M204.743 301.33H536.096C537.429 301.33 538.709 301.869 539.652 302.829C540.595 303.788 541.125 305.09 541.125 306.447V321.676H199.713V306.447C199.713 305.09 200.243 303.788 201.186 302.829C202.13 301.869 203.409 301.33 204.743 301.33V301.33Z" stroke="black" stroke-width="2" stroke-miterlimit="10"/>
<path d="M541.196 321.676H199.713V344.689H541.196V321.676Z" stroke="black" stroke-width="2" stroke-miterlimit="10"/>
<path d="M168.987 266.97H574.849" stroke="black" stroke-width="0.5" stroke-miterlimit="10" stroke-dasharray="4 4"/>
<path d="M199.55 504.051H309.722H573.727" stroke="black" stroke-width="0.5" stroke-miterlimit="10" stroke-dasharray="4 4"/>
<path d="M145.32 294.562V472.369" stroke="black" stroke-width="0.5" stroke-miterlimit="10" stroke-dasharray="4 4"/>
<path d="M145.32 133.238V224.462" stroke="black" stroke-width="0.5" stroke-miterlimit="10" stroke-dasharray="4 4"/>
<path d="M596.639 83.9514V224.462" stroke="black" stroke-width="0.5" stroke-miterlimit="10" stroke-dasharray="4 4"/>
<path d="M130.203 293.773H162.979" stroke="#1025A0" stroke-width="0.25" stroke-miterlimit="10" stroke-dasharray="4 4"/>
<path d="M130.203 474.934H162.979" stroke="#1025A0" stroke-width="0.25" stroke-miterlimit="10" stroke-dasharray="4 4"/>
<path d="M582.255 90.4185H613.501" stroke="#1025A0" stroke-width="0.25" stroke-miterlimit="10" stroke-dasharray="4 4"/>
<path d="M582.255 222.76H613.501" stroke="#1025A0" stroke-width="0.25" stroke-miterlimit="10" stroke-dasharray="4 4"/>
<path d="M596.7 292.537V409.775" stroke="black" stroke-width="0.5" stroke-miterlimit="10" stroke-dasharray="4 4"/>
<path d="M582.296 291.873H615.072" stroke="#1025A0" stroke-width="0.25" stroke-miterlimit="10" stroke-dasharray="4 4"/>
<path d="M582.296 409.671H615.072" stroke="#1025A0" stroke-width="0.25" stroke-miterlimit="10" stroke-dasharray="4 4"/>
<path d="M198.744 519.009V485.656" stroke="#1025A0" stroke-width="0.25" stroke-miterlimit="10" stroke-dasharray="4 4"/>
<path d="M311.446 519.009V485.656" stroke="#1025A0" stroke-width="0.25" stroke-miterlimit="10" stroke-dasharray="4 4"/>
<path d="M540.288 519.009V485.656" stroke="#1025A0" stroke-width="0.25" stroke-miterlimit="10" stroke-dasharray="4 4"/>
<path d="M573.604 519.009V485.656" stroke="#1025A0" stroke-width="0.25" stroke-miterlimit="10" stroke-dasharray="4 4"/>
<path d="M417.013 520.32H421.123V519.36H419.703V513.53H417.013V514.48H418.613V519.36H417.013V520.32ZM424.353 520.47C425.643 520.47 426.683 519.47 426.683 518.23C426.683 517.3 426.103 516.5 425.263 516.16H425.253L426.153 513.53H422.293V514.48H424.743L423.873 517.12C424.023 517.06 424.183 517.03 424.353 517.03C425.043 517.03 425.553 517.56 425.553 518.23C425.553 518.89 425.043 519.42 424.353 519.42C423.663 519.42 423.153 518.89 423.153 518.23H422.023C422.023 519.47 423.063 520.47 424.353 520.47ZM428.193 520.32H429.383L431.883 513.53H427.883V514.48H430.383L428.193 520.32Z" fill="black"/>
<path d="M552.73 520.32H556.8V519.36H554.19L556.27 516.88C556.62 516.51 556.83 516.01 556.83 515.46C556.83 514.29 555.84 513.33 554.62 513.33C553.4 513.33 552.41 514.29 552.41 515.46C552.41 516.57 553.28 517.47 554.4 517.58L552.14 520.31H552.74L552.73 520.32ZM554.62 516.56C553.99 516.56 553.52 516.07 553.52 515.46C553.52 514.85 553.99 514.36 554.62 514.36C555.25 514.36 555.72 514.85 555.72 515.46C555.72 516.07 555.25 516.56 554.62 516.56ZM560.419 520.47C562.139 520.5 562.939 518.86 562.909 516.92C562.939 514.98 562.139 513.4 560.419 513.37C558.699 513.4 557.879 514.98 557.909 516.92C557.879 518.86 558.699 520.5 560.419 520.47ZM560.419 519.44C559.239 519.44 559.029 518 559.029 516.92C559.029 515.85 559.239 514.39 560.419 514.39C561.599 514.39 561.789 515.85 561.789 516.92C561.789 518 561.599 519.44 560.419 519.44Z" fill="black"/>
<path d="M248.209 520.32H249.399L251.899 513.53H247.899V514.48H250.399L248.209 520.32ZM253.512 520.32H254.702L257.202 513.53H253.202V514.48H255.702L253.512 520.32Z" fill="black"/>
<path d="M167.171 283.153V249.811" stroke="#1025A0" stroke-width="0.25" stroke-miterlimit="10" stroke-dasharray="4 4"/>
<path d="M574.696 283.153V249.811" stroke="#1025A0" stroke-width="0.25" stroke-miterlimit="10" stroke-dasharray="4 4"/>
<path d="M362.448 263.704H366.518V262.744H363.908L365.988 260.264C366.338 259.894 366.548 259.394 366.548 258.844C366.548 257.674 365.558 256.714 364.338 256.714C363.118 256.714 362.128 257.674 362.128 258.844C362.128 259.954 362.998 260.854 364.118 260.964L361.858 263.694H362.458L362.448 263.704ZM364.338 259.944C363.708 259.944 363.238 259.454 363.238 258.844C363.238 258.234 363.708 257.744 364.338 257.744C364.968 257.744 365.438 258.234 365.438 258.844C365.438 259.454 364.968 259.944 364.338 259.944ZM369.771 263.854C371.061 263.854 372.101 262.854 372.101 261.614C372.101 260.684 371.521 259.884 370.681 259.544C370.401 259.424 370.091 259.364 369.771 259.364V257.864H372.031V256.914H368.681V260.344L369.201 260.554C369.361 260.464 369.551 260.414 369.771 260.414C370.461 260.414 370.971 260.944 370.971 261.614C370.971 262.274 370.461 262.804 369.771 262.804C369.081 262.804 368.571 262.274 368.571 261.614H367.441C367.441 262.854 368.481 263.854 369.771 263.854ZM376.278 263.694H377.448V260.494H374.738L376.708 256.914H375.538L373.008 261.434H376.278V263.694Z" fill="black"/>
<path d="M610.087 352.729V348.619H609.127V350.039H603.297V352.729H604.247V351.129H609.127V352.729H610.087ZM610.237 345.39C610.237 344.1 609.237 343.06 607.997 343.06C607.067 343.06 606.267 343.64 605.927 344.48V344.49L603.297 343.59V347.45H604.247V345L606.887 345.87C606.827 345.72 606.797 345.56 606.797 345.39C606.797 344.7 607.327 344.19 607.997 344.19C608.657 344.19 609.187 344.7 609.187 345.39C609.187 346.08 608.657 346.59 607.997 346.59V347.72C609.237 347.72 610.237 346.68 610.237 345.39Z" fill="black"/>
<path d="M610.087 159.912V155.802H609.127V157.222H603.297V159.912H604.247V158.312H609.127V159.912H610.087ZM610.237 152.592C610.267 150.872 608.627 150.072 606.687 150.102C604.747 150.072 603.167 150.872 603.137 152.592C603.167 154.312 604.747 155.132 606.687 155.102C608.627 155.132 610.267 154.312 610.237 152.592ZM609.207 152.592C609.207 153.772 607.767 153.982 606.687 153.982C605.617 153.982 604.157 153.772 604.157 152.592C604.157 151.412 605.617 151.222 606.687 151.222C607.767 151.222 609.207 151.412 609.207 152.592ZM610.237 146.596C610.267 144.876 608.627 144.076 606.687 144.106C604.747 144.076 603.167 144.876 603.137 146.596C603.167 148.316 604.747 149.136 606.687 149.106C608.627 149.136 610.267 148.316 610.237 146.596ZM609.207 146.596C609.207 147.776 607.767 147.986 606.687 147.986C605.617 147.986 604.157 147.776 604.157 146.596C604.157 145.416 605.617 145.226 606.687 145.226C607.767 145.226 609.207 145.416 609.207 146.596Z" fill="black"/>
<path d="M135.14 180.72C135.14 179.43 134.14 178.39 132.9 178.39C131.73 178.39 130.77 179.31 130.66 180.49L128.21 178.57V179.91L131.35 182.41C131.76 182.81 132.3 183.05 132.9 183.05C134.14 183.05 135.14 182.01 135.14 180.72ZM134.09 180.72C134.09 181.41 133.56 181.92 132.9 181.92C132.23 181.92 131.7 181.41 131.7 180.72C131.7 180.03 132.23 179.52 132.9 179.52C133.56 179.52 134.09 180.03 134.09 180.72ZM135.15 174.855C135.15 173.565 134.15 172.525 132.91 172.525C131.98 172.525 131.18 173.105 130.84 173.945C130.72 174.225 130.66 174.535 130.66 174.855H129.16V172.595H128.21V175.945H131.64L131.85 175.425C131.76 175.265 131.71 175.075 131.71 174.855C131.71 174.165 132.24 173.655 132.91 173.655C133.57 173.655 134.1 174.165 134.1 174.855C134.1 175.545 133.57 176.055 132.91 176.055V177.185C134.15 177.185 135.15 176.145 135.15 174.855Z" fill="black"/>
<path d="M135 391.646V387.536H134.04V388.956H128.21V391.646H129.16V390.046H134.04V391.646H135ZM135 386.121V384.931L128.21 382.431V386.431H129.16V383.931L135 386.121ZM134.99 379.055V377.885H131.79V380.595L128.21 378.625V379.795L132.73 382.325V379.055H134.99Z" fill="black"/>
<path d="M130.937 222.936H163.009" stroke="#1025A0" stroke-width="0.25" stroke-miterlimit="10" stroke-dasharray="4 4"/>
<path d="M130.937 131.463H162.714" stroke="#1025A0" stroke-width="0.25" stroke-miterlimit="10" stroke-dasharray="4 4"/>
</svg>
