<svg width="740" height="604" viewBox="0 0 740 604" fill="none" xmlns="http://www.w3.org/2000/svg">
<path d="M713.954 603.62H26.0367C19.2295 603.62 12.7011 600.916 7.88767 596.103C3.07426 591.289 0.370117 584.761 0.370117 577.953V26.0266C0.380714 19.2264 3.08954 12.7082 7.9018 7.90345C12.7141 3.09868 19.2364 0.400016 26.0367 0.400024H713.944C717.315 0.400024 720.654 1.06424 723.768 2.35473C726.883 3.64523 729.713 5.53671 732.096 7.92113C734.48 10.3056 736.37 13.1362 737.659 16.2514C738.949 19.3665 739.612 22.7052 739.61 26.0766V578.003C739.61 584.811 736.906 591.339 732.093 596.152C727.279 600.966 720.751 603.67 713.944 603.67" fill="#EAEAEA"/>
<path d="M68.02 302.118V421.93C68.0227 424.479 69.0188 426.922 70.7897 428.724C72.5607 430.526 74.9618 431.54 77.4663 431.543H320.692V340.827H428.293V431.584H450.542C453.487 431.581 456.311 430.389 458.394 428.27C460.477 426.151 461.648 423.277 461.651 420.28V300.177H69.9276C69.6771 300.177 69.4291 300.227 69.1976 300.325C68.9662 300.423 68.7559 300.566 68.5787 300.746C68.4016 300.926 68.2611 301.14 68.1652 301.376C68.0694 301.611 68.02 301.863 68.02 302.118ZM96.8484 410.356H68.2852V305.253C68.2839 304.6 68.4094 303.953 68.6545 303.349C68.8995 302.745 69.2594 302.196 69.7134 301.734C70.1674 301.272 70.7066 300.906 71.3001 300.657C71.8935 300.407 72.5295 300.28 73.1716 300.281H99.5517C99.7571 300.28 99.9606 300.32 100.151 300.399C100.341 300.478 100.513 300.595 100.658 300.743C100.804 300.891 100.918 301.067 100.996 301.26C101.074 301.453 101.114 301.66 101.112 301.869V406.038C101.112 406.606 101.002 407.17 100.787 407.695C100.573 408.22 100.259 408.697 99.8623 409.099C99.4661 409.5 98.9959 409.817 98.4787 410.033C97.9614 410.249 97.4074 410.359 96.8484 410.356V410.356Z" stroke="#191919" stroke-width="2" stroke-miterlimit="10"/>
<path d="M419.531 507.767H329.455C326.861 507.764 324.374 506.714 322.54 504.848C320.706 502.982 319.675 500.451 319.672 497.812V339.789H429.314V497.812C429.311 500.451 428.279 502.982 426.445 504.848C424.611 506.714 422.124 507.764 419.531 507.767V507.767ZM321.712 341.866V497.812C321.712 498.846 321.912 499.871 322.301 500.827C322.691 501.783 323.261 502.651 323.98 503.383C324.699 504.115 325.552 504.695 326.492 505.091C327.431 505.487 328.438 505.691 329.455 505.691H419.531C420.548 505.691 421.554 505.487 422.494 505.091C423.433 504.695 424.287 504.115 425.006 503.383C425.725 502.651 426.295 501.783 426.684 500.827C427.073 499.871 427.273 498.846 427.273 497.812V341.866H321.712Z" fill="#191919"/>
<path d="M97.1853 302.357C97.6805 302.357 98.1553 302.558 98.5054 302.914C98.8555 303.27 99.0522 303.753 99.0522 304.257V406.36C99.0522 406.863 98.8555 407.347 98.5054 407.703C98.1553 408.059 97.6805 408.259 97.1853 408.259H72.1722C71.6771 408.259 71.2022 408.059 70.8522 407.703C70.5021 407.347 70.3054 406.863 70.3054 406.36V304.257C70.3054 303.753 70.5021 303.27 70.8522 302.914C71.2022 302.558 71.6771 302.357 72.1722 302.357H97.1853ZM97.1853 300.281H74.0798C72.5377 300.281 71.0587 300.905 69.9682 302.014C68.8778 303.124 68.2652 304.629 68.2652 306.198V406.36C68.2638 406.882 68.3639 407.4 68.5598 407.883C68.7557 408.366 69.0434 408.804 69.4065 409.174C69.7696 409.543 70.2008 409.836 70.6754 410.036C71.1501 410.235 71.6587 410.337 72.1722 410.335H97.1853C97.7014 410.341 98.2133 410.242 98.6915 410.045C99.1697 409.847 99.6046 409.555 99.9709 409.185C100.337 408.815 100.628 408.375 100.825 407.89C101.023 407.405 101.124 406.885 101.123 406.36V304.257C101.124 303.735 101.024 303.217 100.828 302.734C100.632 302.251 100.345 301.812 99.9816 301.443C99.6186 301.073 99.1873 300.78 98.7127 300.581C98.2381 300.382 97.7294 300.28 97.216 300.281H97.1853Z" fill="#191919"/>
<path d="M429.313 300.281V299.762H100.582V311.368H428.293V385.837H461.651V300.281H429.313ZM102.143 310.33V300.8H428.293V310.33H102.143ZM459.662 383.761H430.384V302.357H459.662V383.761Z" fill="#191919"/>
<path d="M211.764 431.947H76.8033C74.2033 431.947 71.7098 430.896 69.8713 429.026C68.0328 427.155 67 424.618 67 421.972V339.924H69.2851V406.785C69.2851 407.468 69.5516 408.123 70.026 408.606C70.5005 409.088 71.144 409.36 71.8149 409.36H97.4402C98.1374 409.357 98.8052 409.074 99.2982 408.572C99.7912 408.07 100.069 407.391 100.072 406.681V339.924H211.764V431.947ZM69.0402 412.65V421.993C69.0402 424.088 69.8581 426.097 71.314 427.578C72.7698 429.06 74.7444 429.892 76.8033 429.892H209.724V342H102.143V406.681C102.143 407.942 101.651 409.152 100.774 410.043C99.8983 410.935 98.7099 411.436 97.4708 411.436H70.2746C69.9541 411.435 69.6462 411.562 69.4159 411.789C69.1855 412.015 69.0508 412.324 69.0402 412.65V412.65Z" fill="#191919"/>
<path d="M321.61 431.948H210.061V339.789H321.61V431.948ZM212.101 429.871H319.57V341.866H212.101V429.871Z" fill="#191919"/>
<path d="M556.256 208.372L557.001 185.826H657.931L660.359 208.237C660.392 208.414 660.484 208.574 660.62 208.689C660.755 208.805 660.926 208.869 661.103 208.87H666.938C667.14 208.868 667.334 208.785 667.476 208.639C667.619 208.494 667.701 208.298 667.703 208.092V185.826H672.804C673.005 185.826 673.198 185.745 673.341 185.601C673.485 185.458 673.566 185.262 673.569 185.058V136.684C673.569 135.079 672.943 133.54 671.827 132.405C670.712 131.27 669.199 130.633 667.622 130.633H651.065V103.965C651.065 102.589 650.528 101.268 649.572 100.295C648.615 99.3217 647.318 98.7749 645.965 98.7749H585.115C584.932 98.7755 584.754 98.7134 584.609 98.5986C584.465 98.4837 584.363 98.3228 584.319 98.1416L580.239 80.9619C579.703 78.6875 578.429 76.6638 576.622 75.2187C574.815 73.7736 572.581 72.9918 570.283 73.0001H553.441C553.33 73.0014 553.22 73.0272 553.12 73.0758C553.02 73.1244 552.931 73.1946 552.861 73.2815C552.79 73.3684 552.738 73.4699 552.71 73.5791C552.681 73.6882 552.677 73.8024 552.696 73.9136L557.113 98.4531C557.121 98.494 557.119 98.5361 557.109 98.5763C557.098 98.6166 557.079 98.6539 557.053 98.6857C557.027 98.7176 556.994 98.743 556.956 98.7602C556.919 98.7774 556.878 98.786 556.838 98.7852H541.25C540.867 98.788 540.5 98.9441 540.229 99.22C539.958 99.4958 539.804 99.8692 539.802 100.259V185.058C539.804 185.262 539.886 185.458 540.029 185.601C540.173 185.745 540.366 185.826 540.567 185.826H546.228L546.963 208.372C546.968 208.572 547.05 208.762 547.191 208.902C547.332 209.042 547.521 209.12 547.718 209.12H555.501C555.698 209.12 555.887 209.042 556.028 208.902C556.169 208.762 556.251 208.572 556.256 208.372V208.372ZM666.183 207.334H661.736L659.512 186.013H666.183V207.334ZM570.293 74.5675C572.25 74.5629 574.152 75.2291 575.692 76.4589C577.232 77.6886 578.32 79.4102 578.78 81.346L582.799 98.2039C582.818 98.2808 582.819 98.361 582.803 98.4383C582.786 98.5157 582.753 98.5882 582.705 98.6503C582.656 98.7125 582.595 98.7625 582.525 98.7967C582.454 98.8309 582.377 98.8482 582.3 98.8475H559.153C559.034 98.8491 558.918 98.8071 558.826 98.729C558.734 98.6509 558.673 98.542 558.653 98.4219L554.349 74.5468L570.293 74.5675ZM667.652 132.19C668.827 132.19 669.953 132.664 670.783 133.509C671.613 134.354 672.08 135.5 672.08 136.695V152.131H671.366V152.909H672.08V184.3H651.065V152.899H651.678V152.12H651.065V132.179L667.652 132.19ZM541.954 100.332H646.006C646.954 100.332 647.863 100.714 648.534 101.395C649.205 102.076 649.584 103.001 649.586 103.965V184.289H541.322V100.976C541.322 100.805 541.388 100.641 541.507 100.52C541.626 100.4 541.786 100.332 541.954 100.332V100.332ZM547.748 185.94H555.481L554.767 207.583H548.452L547.748 185.94Z" fill="#191919"/>
<path d="M657.288 152.12H654.483V152.889H657.288V152.12Z" fill="#191919"/>
<path d="M662.899 152.12H660.094V152.889H662.899V152.12Z" fill="#191919"/>
<path d="M668.509 152.12H665.704V152.889H668.509V152.12Z" fill="#191919"/>
<path d="M459.08 99.875H433.047V78.5535C433.047 78.2141 432.981 77.878 432.854 77.5644C432.726 77.2508 432.539 76.9658 432.303 76.7258C432.067 76.4858 431.787 76.2954 431.479 76.1655C431.171 76.0356 430.841 75.9688 430.507 75.9688H102.5C102.167 75.9687 101.836 76.0356 101.528 76.1655C101.22 76.2954 100.94 76.4858 100.704 76.7258C100.468 76.9658 100.281 77.2508 100.153 77.5644C100.026 77.878 99.96 78.2141 99.96 78.5535V100.031H71.203C70.1208 100.031 69.0829 100.468 68.3177 101.247C67.5525 102.026 67.1226 103.082 67.1226 104.183V180.127C67.1226 181.608 67.7008 183.028 68.73 184.076C69.7593 185.123 71.1552 185.711 72.6108 185.711H78.7314V206.161C78.7341 206.809 78.989 207.429 79.4402 207.887C79.8914 208.344 80.5022 208.6 81.1389 208.6H85.9436C86.5794 208.6 87.1892 208.343 87.6388 207.886C88.0883 207.428 88.3409 206.808 88.3409 206.161V185.711L207.317 185.981V206.161C207.317 206.808 207.569 207.428 208.019 207.886C208.468 208.343 209.078 208.6 209.714 208.6H214.519C215.155 208.6 215.766 208.344 216.217 207.887C216.669 207.429 216.923 206.809 216.926 206.161V185.992H317.254V206.171C317.254 206.818 317.507 207.439 317.956 207.896C318.406 208.354 319.016 208.611 319.651 208.611H324.456C325.093 208.611 325.704 208.354 326.155 207.897C326.606 207.44 326.861 206.819 326.864 206.171V185.992H442.289V206.171C442.292 206.819 442.547 207.44 442.998 207.897C443.449 208.354 444.06 208.611 444.697 208.611H449.491C450.128 208.611 450.739 208.354 451.19 207.897C451.641 207.44 451.896 206.819 451.899 206.171V185.992H457.826C458.538 185.988 459.243 185.839 459.898 185.555C460.554 185.271 461.147 184.857 461.644 184.338C462.141 183.818 462.531 183.202 462.791 182.528C463.051 181.853 463.177 181.132 463.161 180.407V180.293C463.161 180.293 463.161 180.199 463.161 180.158V104.048C463.164 103.501 463.06 102.959 462.856 102.453C462.652 101.946 462.352 101.486 461.973 101.099C461.594 100.711 461.143 100.403 460.647 100.193C460.15 99.9831 459.618 99.875 459.08 99.875V99.875ZM87.28 206.171C87.28 206.355 87.2444 206.538 87.1752 206.708C87.106 206.878 87.0045 207.032 86.8766 207.162C86.7487 207.292 86.5969 207.396 86.4299 207.466C86.2628 207.537 86.0837 207.573 85.9028 207.573H81.0981C80.7319 207.573 80.3806 207.425 80.1207 207.163C79.8608 206.9 79.7134 206.544 79.7108 206.171V185.722H87.28V206.171ZM99.6948 141.542V183.646H72.5598C71.6453 183.646 70.7683 183.276 70.1217 182.618C69.475 181.96 69.1118 181.068 69.1118 180.137V104.193C69.1118 103.643 69.3267 103.115 69.7093 102.725C70.092 102.336 70.6109 102.117 71.152 102.117H99.6948V141.542ZM459.08 101.951C459.622 101.951 460.141 102.17 460.523 102.559C460.906 102.949 461.121 103.477 461.121 104.027V139.83H433.047V101.951H459.08ZM321.1 142.58V164.67H213.09V142.58H321.1ZM430.507 78.0449C430.64 78.0449 430.767 78.0984 430.861 78.1938C430.954 78.2892 431.007 78.4186 431.007 78.5535V99.875H430.925V139.85H323.732V78.0449H430.507ZM321.1 78.0449V139.85H213.111V78.0449H321.1ZM102.5 78.0449H210.632V139.85H102V78.6054C101.993 78.5344 102.001 78.4626 102.023 78.3948C102.044 78.3269 102.08 78.2646 102.127 78.2117C102.174 78.1588 102.232 78.1166 102.296 78.0879C102.36 78.0591 102.43 78.0445 102.5 78.0449V78.0449ZM101.735 142.58H210.581V164.681H101.735V142.58ZM215.865 206.171C215.863 206.544 215.715 206.9 215.455 207.163C215.195 207.425 214.844 207.573 214.478 207.573H209.673C209.309 207.57 208.96 207.422 208.702 207.159C208.445 206.897 208.299 206.542 208.296 206.171V185.992H215.865V206.171ZM325.803 206.171C325.8 206.544 325.653 206.9 325.393 207.163C325.133 207.425 324.782 207.573 324.415 207.573H319.611C319.246 207.57 318.898 207.422 318.64 207.159C318.382 206.897 318.236 206.542 318.234 206.171V185.992H325.803V206.171ZM450.879 206.171C450.876 206.544 450.729 206.9 450.469 207.163C450.209 207.425 449.858 207.573 449.491 207.573H444.697C444.331 207.573 443.979 207.425 443.719 207.163C443.46 206.9 443.312 206.544 443.31 206.171V185.992H450.879V206.171ZM461.08 180.293C461.048 181.193 460.674 182.046 460.037 182.672C459.399 183.297 458.548 183.646 457.663 183.646H101.847V166.912H461.121L461.08 180.293ZM461.08 164.722H323.732V142.58H461.141L461.08 164.722Z" fill="#191919"/>
<path d="M255.532 278.272C256.822 278.272 257.862 277.272 257.862 276.032C257.862 275.102 257.282 274.302 256.442 273.962C256.162 273.842 255.852 273.782 255.532 273.782V272.282H257.792V271.332H254.442V274.762L254.962 274.972C255.122 274.882 255.312 274.832 255.532 274.832C256.222 274.832 256.732 275.362 256.732 276.032C256.732 276.692 256.222 277.222 255.532 277.222C254.842 277.222 254.332 276.692 254.332 276.032H253.202C253.202 277.272 254.242 278.272 255.532 278.272ZM261.196 278.272C262.486 278.272 263.526 277.272 263.526 276.032C263.526 275.102 262.946 274.302 262.106 273.962C261.826 273.842 261.516 273.782 261.196 273.782V272.282H263.456V271.332H260.106V274.762L260.626 274.972C260.786 274.882 260.976 274.832 261.196 274.832C261.886 274.832 262.396 275.362 262.396 276.032C262.396 276.692 261.886 277.222 261.196 277.222C260.506 277.222 259.996 276.692 259.996 276.032H258.866C258.866 277.272 259.906 278.272 261.196 278.272Z" fill="black"/>
<path d="M368.842 548.399H370.032L372.532 541.609H368.532V542.559H371.032L368.842 548.399ZM375.261 548.549C376.551 548.549 377.591 547.549 377.591 546.309C377.591 545.379 377.011 544.579 376.171 544.239C375.891 544.119 375.581 544.059 375.261 544.059V542.559H377.521V541.609H374.171V545.039L374.691 545.249C374.851 545.159 375.041 545.109 375.261 545.109C375.951 545.109 376.461 545.639 376.461 546.309C376.461 546.969 375.951 547.499 375.261 547.499C374.571 547.499 374.061 546.969 374.061 546.309H372.931C372.931 547.549 373.971 548.549 375.261 548.549Z" fill="black"/>
<path d="M440.878 278.122H444.988V277.162H443.568V271.332H440.878V272.282H442.478V277.162H440.878V278.122ZM448.018 278.272C449.308 278.272 450.348 277.272 450.348 276.032C450.348 275.102 449.768 274.302 448.928 273.962C448.648 273.842 448.338 273.782 448.018 273.782V272.282H450.278V271.332H446.928V274.762L447.448 274.972C447.608 274.882 447.798 274.832 448.018 274.832C448.708 274.832 449.218 275.362 449.218 276.032C449.218 276.692 448.708 277.222 448.018 277.222C447.328 277.222 446.818 276.692 446.818 276.032H445.688C445.688 277.272 446.728 278.272 448.018 278.272Z" fill="black"/>
<path d="M492.114 374.894V373.624L488.634 370.854V370.864C488.284 370.624 487.854 370.484 487.404 370.484C486.164 370.484 485.164 371.524 485.164 372.814C485.164 374.104 486.164 375.144 487.404 375.144C488.594 375.144 489.574 374.184 489.654 372.964L492.114 374.894ZM488.604 372.814C488.604 373.504 488.074 374.014 487.404 374.014C486.744 374.014 486.214 373.504 486.214 372.814C486.214 372.124 486.744 371.614 487.404 371.614C488.074 371.614 488.604 372.124 488.604 372.814ZM492.264 366.97C492.294 365.25 490.654 364.45 488.714 364.48C486.774 364.45 485.194 365.25 485.164 366.97C485.194 368.69 486.774 369.51 488.714 369.48C490.654 369.51 492.294 368.69 492.264 366.97ZM491.234 366.97C491.234 368.15 489.794 368.36 488.714 368.36C487.644 368.36 486.184 368.15 486.184 366.97C486.184 365.79 487.644 365.6 488.714 365.6C489.794 365.6 491.234 365.79 491.234 366.97Z" fill="black"/>
<path d="M597.767 230.562H599.291L602.615 226.386H602.603C602.891 225.966 603.059 225.45 603.059 224.91C603.059 223.422 601.811 222.222 600.263 222.222C598.715 222.222 597.467 223.422 597.467 224.91C597.467 226.338 598.619 227.514 600.083 227.61L597.767 230.562ZM600.263 226.35C599.435 226.35 598.823 225.714 598.823 224.91C598.823 224.118 599.435 223.482 600.263 223.482C601.091 223.482 601.703 224.118 601.703 224.91C601.703 225.714 601.091 226.35 600.263 226.35ZM607.276 230.742C609.34 230.778 610.3 228.81 610.264 226.482C610.3 224.154 609.34 222.258 607.276 222.222C605.212 222.258 604.228 224.154 604.264 226.482C604.228 228.81 605.212 230.778 607.276 230.742ZM607.276 229.506C605.86 229.506 605.608 227.778 605.608 226.482C605.608 225.198 605.86 223.446 607.276 223.446C608.692 223.446 608.92 225.198 608.92 226.482C608.92 227.778 608.692 229.506 607.276 229.506Z" fill="black"/>
<path d="M494.063 461.496V457.386H493.103V458.806H487.273V461.496H488.223V459.896H493.103V461.496H494.063ZM494.203 453.854C494.203 452.564 493.203 451.524 491.963 451.524C490.793 451.524 489.833 452.444 489.723 453.624L487.273 451.704V453.044L490.413 455.544C490.823 455.944 491.363 456.184 491.963 456.184C493.203 456.184 494.203 455.144 494.203 453.854ZM493.153 453.854C493.153 454.544 492.623 455.054 491.963 455.054C491.293 455.054 490.763 454.544 490.763 453.854C490.763 453.164 491.293 452.654 491.963 452.654C492.623 452.654 493.153 453.164 493.153 453.854ZM494.213 447.809C494.243 446.089 492.603 445.289 490.663 445.319C488.723 445.289 487.143 446.089 487.113 447.809C487.143 449.529 488.723 450.349 490.663 450.319C492.603 450.349 494.243 449.529 494.213 447.809ZM493.183 447.809C493.183 448.989 491.743 449.199 490.663 449.199C489.593 449.199 488.133 448.989 488.133 447.809C488.133 446.629 489.593 446.439 490.663 446.439C491.743 446.439 493.183 446.629 493.183 447.809Z" fill="black"/>
<path d="M478.891 299.679V506.915" stroke="#191919" stroke-width="0.5" stroke-miterlimit="10" stroke-dasharray="4 4"/>
<path d="M320.284 530.448H352.969H431.293" stroke="black" stroke-width="0.5" stroke-miterlimit="10" stroke-dasharray="4 4"/>
<path d="M547.585 216.417H582.728H666.939" stroke="black" stroke-width="0.5" stroke-miterlimit="10" stroke-dasharray="4 4"/>
<path d="M320.06 545.407V512.054" stroke="#1025A0" stroke-width="0.25" stroke-miterlimit="10" stroke-dasharray="4 4"/>
<path d="M429.038 545.407V512.054" stroke="#1025A0" stroke-width="0.25" stroke-miterlimit="10" stroke-dasharray="4 4"/>
<path d="M461.764 296.046V262.693" stroke="#1025A0" stroke-width="0.25" stroke-miterlimit="10" stroke-dasharray="4 4"/>
<path d="M68.9077 281.586H184.66H462.059" stroke="black" stroke-width="0.5" stroke-miterlimit="10" stroke-dasharray="4 4"/>
<path d="M68.0913 296.046V262.693" stroke="#1025A0" stroke-width="0.25" stroke-miterlimit="10" stroke-dasharray="4 4"/>
<path d="M464.885 299.44H497.661" stroke="#1025A0" stroke-width="0.25" stroke-miterlimit="10" stroke-dasharray="4 4"/>
<path d="M464.885 431.781H497.661" stroke="#1025A0" stroke-width="0.25" stroke-miterlimit="10" stroke-dasharray="4 4"/>
<path d="M461.886 508.95H494.662" stroke="#1025A0" stroke-width="0.25" stroke-miterlimit="10" stroke-dasharray="4 4"/>
</svg>
