<svg width="740" height="604" viewBox="0 0 740 604" fill="none" xmlns="http://www.w3.org/2000/svg">
<path d="M713.954 603.62H26.0367C19.2295 603.62 12.7011 600.916 7.88767 596.102C3.07426 591.289 0.370117 584.761 0.370117 577.953V26.0265C0.380714 19.2262 3.08954 12.7081 7.9018 7.90333C12.7141 3.09856 19.2364 0.399894 26.0367 0.399902H713.944C717.315 0.399902 720.654 1.06412 723.768 2.35461C726.883 3.6451 729.713 5.53659 732.096 7.92101C734.48 10.3054 736.37 13.1361 737.659 16.2512C738.949 19.3664 739.612 22.7051 739.61 26.0765V578.003C739.61 584.811 736.906 591.339 732.093 596.152C727.279 600.966 720.751 603.67 713.944 603.67" fill="#EAEAEA"/>
<path d="M394.126 87.2371C394.126 86.0537 393.893 84.882 393.44 83.7887C392.988 82.6954 392.324 81.7021 391.487 80.8653C390.65 80.0286 389.657 79.3648 388.564 78.912C387.471 78.4591 386.299 78.2261 385.116 78.2261H366.496C364.105 78.2261 361.812 79.1751 360.121 80.8647C358.429 82.5543 357.477 84.8462 357.475 87.2371V71.0434C357.45 68.6057 356.946 66.1967 355.991 63.9539C355.035 61.7112 353.647 59.6788 351.906 57.9728C350.164 56.2668 348.104 54.9206 345.842 54.0113C343.581 53.1019 341.162 52.6472 338.724 52.6731H264.67C260.287 52.6326 256.03 54.1377 252.647 56.924C249.264 59.7104 246.97 63.5998 246.17 67.9091C246.17 67.9812 246.141 68.0504 246.09 68.1015C246.039 68.1525 245.97 68.1812 245.898 68.1812C245.826 68.1812 245.756 68.1525 245.705 68.1015C245.654 68.0504 245.626 67.9812 245.626 67.9091C244.813 63.6055 242.516 59.7235 239.136 56.9393C235.755 54.1552 231.505 52.6454 227.126 52.6731H152.821C150.379 52.6429 147.955 53.0942 145.688 54.0012C143.421 54.9082 141.354 56.2532 139.607 57.9592C137.859 59.6652 136.465 61.6988 135.504 63.9439C134.543 66.1889 134.034 68.6014 134.005 71.0434V88.5321C134.007 87.2564 133.757 85.9929 133.27 84.8139C132.782 83.6349 132.068 82.5634 131.166 81.6608C130.265 80.7583 129.194 80.0422 128.016 79.5537C126.837 79.0652 125.574 78.8137 124.298 78.8137H107.061C105.785 78.8137 104.521 79.0651 103.342 79.5535C102.163 80.0419 101.091 80.7578 100.189 81.6602C99.2867 82.5626 98.5709 83.634 98.0825 84.8131C97.5942 85.9922 97.3428 87.2559 97.3428 88.5321L97.1904 174.442C97.1904 175.36 97.3715 176.269 97.7233 177.118C98.0751 177.966 98.5907 178.737 99.2406 179.386C99.8905 180.035 100.662 180.549 101.511 180.9C102.36 181.25 103.269 181.43 104.188 181.428H387.412C389.265 181.428 391.042 180.692 392.352 179.382C393.662 178.072 394.398 176.295 394.398 174.442L394.126 87.2371ZM236.691 122.889C238.504 122.889 240.242 123.609 241.524 124.891C242.805 126.173 243.525 127.911 243.525 129.724V143.785C243.525 145.228 242.952 146.612 241.932 147.632C240.911 148.653 239.527 149.226 238.084 149.226H142.243C140.473 149.226 138.775 148.523 137.523 147.273C136.27 146.022 135.564 144.325 135.562 142.555V128.603C135.562 127.088 136.164 125.634 137.235 124.563C138.306 123.491 139.76 122.889 141.275 122.889H236.691ZM349.672 122.889C350.43 122.889 351.181 123.039 351.882 123.329C352.582 123.62 353.218 124.046 353.754 124.583C354.29 125.119 354.714 125.757 355.004 126.458C355.293 127.159 355.441 127.91 355.44 128.668V142.566C355.437 144.334 354.733 146.029 353.483 147.28C352.232 148.53 350.537 149.234 348.769 149.237H253.559C252.116 149.237 250.732 148.664 249.711 147.643C248.691 146.623 248.118 145.239 248.118 143.795V130.137C248.118 128.215 248.881 126.372 250.241 125.012C251.6 123.653 253.443 122.889 255.365 122.889H349.672ZM249.413 71.0434C249.459 67.0437 251.088 63.2253 253.944 60.4246C256.799 57.6239 260.648 56.0692 264.648 56.1012H338.702C342.702 56.0692 346.551 57.6239 349.407 60.4246C352.263 63.2253 353.892 67.0437 353.938 71.0434V116.751C353.935 117.004 353.833 117.244 353.653 117.422C353.474 117.599 353.232 117.698 352.98 117.698H251.774C251.134 117.701 250.519 117.451 250.063 117.003C249.606 116.554 249.345 115.944 249.337 115.304L249.413 71.0434ZM137.52 71.0434C137.575 67.035 139.216 63.2117 142.084 60.411C144.952 57.6102 148.813 56.0605 152.821 56.1012H227.104C231.112 56.0605 234.973 57.6102 237.841 60.411C240.709 63.2117 242.35 67.035 242.405 71.0434V115.358C242.396 116.009 242.13 116.629 241.665 117.084C241.2 117.539 240.574 117.791 239.923 117.785H139.969C139.327 117.791 138.709 117.543 138.25 117.094C137.792 116.645 137.529 116.033 137.52 115.391V71.0434ZM387.412 178H104.188C103.72 178 103.258 177.908 102.826 177.729C102.394 177.551 102.002 177.288 101.672 176.958C101.341 176.628 101.079 176.235 100.9 175.803C100.721 175.372 100.629 174.909 100.629 174.442L100.771 88.5321C100.771 86.8639 101.433 85.2639 102.613 84.0842C103.793 82.9046 105.393 82.2418 107.061 82.2418H124.298C125.965 82.2447 127.562 82.9087 128.739 84.0881C129.916 85.2674 130.577 86.8657 130.577 88.5321V143.937C130.583 146.57 131.632 149.094 133.494 150.956C135.356 152.819 137.88 153.867 140.513 153.873H350.978C353.611 153.867 356.135 152.819 357.997 150.956C359.859 149.094 360.908 146.57 360.913 143.937V87.2371C360.913 85.7564 361.502 84.3364 362.549 83.2894C363.595 82.2424 365.015 81.6542 366.496 81.6542H385.116C386.597 81.657 388.017 82.2477 389.064 83.2964C390.111 84.3451 390.698 85.7663 390.698 87.248L390.97 174.442C390.968 175.385 390.592 176.288 389.925 176.955C389.258 177.622 388.355 177.997 387.412 178V178Z" fill="#2D2D2D"/>
<path d="M116.104 207.062C117.652 207.089 118.372 205.613 118.345 203.867C118.372 202.121 117.652 200.699 116.104 200.672C114.556 200.699 113.818 202.121 113.845 203.867C113.818 205.613 114.556 207.089 116.104 207.062ZM116.104 206.135C115.042 206.135 114.853 204.839 114.853 203.867C114.853 202.904 115.042 201.59 116.104 201.59C117.166 201.59 117.337 202.904 117.337 203.867C117.337 204.839 117.166 206.135 116.104 206.135Z" fill="#2D2D2D"/>
<path d="M215.149 206.927H218.812V206.063H216.463L218.335 203.831C218.65 203.498 218.839 203.048 218.839 202.553C218.839 201.5 217.948 200.636 216.85 200.636C215.752 200.636 214.861 201.5 214.861 202.553C214.861 203.552 215.644 204.362 216.652 204.461L214.618 206.918H215.158L215.149 206.927ZM216.85 203.543C216.283 203.543 215.86 203.102 215.86 202.553C215.86 202.004 216.283 201.563 216.85 201.563C217.417 201.563 217.84 202.004 217.84 202.553C217.84 203.102 217.417 203.543 216.85 203.543ZM222.069 207.062C223.617 207.089 224.337 205.613 224.31 203.867C224.337 202.121 223.617 200.699 222.069 200.672C220.521 200.699 219.783 202.121 219.81 203.867C219.783 205.613 220.521 207.089 222.069 207.062ZM222.069 206.135C221.007 206.135 220.818 204.839 220.818 203.867C220.818 202.904 221.007 201.59 222.069 201.59C223.131 201.59 223.302 202.904 223.302 203.867C223.302 204.839 223.131 206.135 222.069 206.135ZM225.423 207.377H226.206V200.276H225.423V207.377ZM227.514 206.927H231.213V206.063H229.935V200.816H227.514V201.671H228.954V206.063H227.514V206.927ZM234.392 207.053C235.553 207.053 236.489 206.153 236.489 205.037C236.489 203.984 235.661 203.12 234.599 203.021L236.327 200.816H235.121L232.871 203.642C232.511 204.011 232.295 204.497 232.295 205.037C232.295 206.153 233.231 207.053 234.392 207.053ZM234.392 206.108C233.771 206.108 233.312 205.631 233.312 205.037C233.312 204.434 233.771 203.957 234.392 203.957C235.013 203.957 235.472 204.434 235.472 205.037C235.472 205.631 235.013 206.108 234.392 206.108ZM239.832 207.062C241.38 207.089 242.1 205.613 242.073 203.867C242.1 202.121 241.38 200.699 239.832 200.672C238.284 200.699 237.546 202.121 237.573 203.867C237.546 205.613 238.284 207.089 239.832 207.062ZM239.832 206.135C238.77 206.135 238.581 204.839 238.581 203.867C238.581 202.904 238.77 201.59 239.832 201.59C240.894 201.59 241.065 202.904 241.065 203.867C241.065 204.839 240.894 206.135 239.832 206.135ZM243.186 207.377H243.969V200.276H243.186V207.377ZM245.276 206.927H248.975V206.063H247.697V200.816H245.276V201.671H246.716V206.063H245.276V206.927ZM250.249 206.927H251.32L253.57 200.816H249.97V201.671H252.22L250.249 206.927ZM256.821 207.062C258.369 207.089 259.089 205.613 259.062 203.867C259.089 202.121 258.369 200.699 256.821 200.672C255.273 200.699 254.535 202.121 254.562 203.867C254.535 205.613 255.273 207.089 256.821 207.062ZM256.821 206.135C255.759 206.135 255.57 204.839 255.57 203.867C255.57 202.904 255.759 201.59 256.821 201.59C257.883 201.59 258.054 202.904 258.054 203.867C258.054 204.839 257.883 206.135 256.821 206.135ZM260.175 207.377H260.958V200.276H260.175V207.377ZM262.266 206.927H265.965V206.063H264.687V200.816H262.266V201.671H263.706V206.063H262.266V206.927ZM268.964 207.053C270.152 207.053 271.097 206.18 271.097 205.109C271.097 204.47 270.755 203.903 270.224 203.552C270.539 203.246 270.728 202.823 270.728 202.355C270.728 201.419 269.945 200.654 268.964 200.654C267.983 200.654 267.2 201.419 267.2 202.355C267.2 202.823 267.389 203.246 267.704 203.552C267.173 203.903 266.831 204.47 266.831 205.109C266.831 206.18 267.776 207.053 268.964 207.053ZM268.964 203.174C268.487 203.174 268.127 202.814 268.127 202.355C268.127 201.887 268.487 201.527 268.964 201.527C269.441 201.527 269.801 201.887 269.801 202.355C269.801 202.814 269.441 203.174 268.964 203.174ZM268.964 206.198C268.307 206.198 267.821 205.721 267.821 205.118C267.821 204.524 268.307 204.056 268.964 204.056C269.621 204.056 270.107 204.524 270.107 205.118C270.107 205.721 269.621 206.198 268.964 206.198ZM274.224 207.062C275.772 207.089 276.492 205.613 276.465 203.867C276.492 202.121 275.772 200.699 274.224 200.672C272.676 200.699 271.938 202.121 271.965 203.867C271.938 205.613 272.676 207.089 274.224 207.062ZM274.224 206.135C273.162 206.135 272.973 204.839 272.973 203.867C272.973 202.904 273.162 201.59 274.224 201.59C275.286 201.59 275.457 202.904 275.457 203.867C275.457 204.839 275.286 206.135 274.224 206.135Z" fill="#2D2D2D"/>
<path d="M380.61 207.062C382.158 207.089 382.878 205.613 382.851 203.867C382.878 202.121 382.158 200.699 380.61 200.672C379.062 200.699 378.324 202.121 378.351 203.867C378.324 205.613 379.062 207.089 380.61 207.062ZM380.61 206.135C379.548 206.135 379.359 204.839 379.359 203.867C379.359 202.904 379.548 201.59 380.61 201.59C381.672 201.59 381.843 202.904 381.843 203.867C381.843 204.839 381.672 206.135 380.61 206.135Z" fill="#2D2D2D"/>
<path d="M132.34 181.222H131.916V182.941H132.34V181.222Z" fill="#2D2D2D"/>
<path d="M132.351 204.337H131.916V200.778H132.351V204.337ZM132.351 197.209H131.916V193.639H132.351V197.209ZM132.351 190.069H131.916V186.511H132.351V190.069Z" fill="#2D2D2D"/>
<path d="M132.34 207.906H131.916V209.626H132.34V207.906Z" fill="#2D2D2D"/>
<path d="M358.095 209.92H357.66V208.059H358.095V209.92ZM358.095 204.674H357.66V201.333H358.095V204.674ZM358.095 197.905H357.66V194.521H358.095V197.905ZM358.095 191.136H357.66V187.751H358.095V191.136ZM358.095 184.356H357.66V180.971H358.095V184.356Z" fill="#2D2D2D"/>
<path d="M384.659 274.379H106.071C103.57 274.382 101.173 275.377 99.4061 277.147C97.639 278.916 96.6465 281.314 96.6465 283.815V406.073C96.6465 407.448 97.1919 408.767 98.163 409.74C99.1341 410.713 100.452 411.261 101.826 411.264H138.924V567.553C138.924 568.468 139.288 569.346 139.935 569.993C140.582 570.64 141.459 571.003 142.374 571.003H350.412C350.866 571.004 351.316 570.916 351.736 570.744C352.155 570.571 352.537 570.317 352.858 569.996C353.18 569.676 353.435 569.295 353.609 568.876C353.783 568.457 353.873 568.007 353.873 567.553V411.264H388.881C390.258 411.264 391.578 410.717 392.552 409.744C393.525 408.77 394.072 407.45 394.072 406.073V283.815C394.072 281.316 393.081 278.919 391.316 277.15C389.552 275.382 387.157 274.385 384.659 274.379V274.379ZM245.114 279.559V329.457C245.114 329.965 244.913 330.453 244.553 330.812C244.194 331.171 243.707 331.373 243.199 331.373H142.831C142.19 331.373 141.576 331.118 141.123 330.665C140.67 330.212 140.415 329.598 140.415 328.957V279.559C140.415 279.086 140.603 278.632 140.938 278.297C141.273 277.963 141.727 277.775 142.2 277.775H243.33C243.564 277.773 243.797 277.818 244.014 277.908C244.232 277.997 244.429 278.128 244.595 278.294C244.761 278.46 244.892 278.657 244.982 278.875C245.071 279.092 245.116 279.325 245.114 279.559V279.559ZM243.264 333.974C243.755 333.974 244.226 334.169 244.573 334.516C244.92 334.863 245.114 335.333 245.114 335.824V405.931C245.114 406.445 244.91 406.938 244.547 407.301C244.184 407.665 243.691 407.869 243.177 407.869H142.918C142.254 407.869 141.618 407.605 141.148 407.135C140.679 406.666 140.415 406.029 140.415 405.366V336.499C140.415 336.17 140.48 335.846 140.606 335.542C140.732 335.239 140.916 334.964 141.149 334.733C141.382 334.501 141.658 334.318 141.961 334.193C142.265 334.068 142.59 334.005 142.918 334.006L243.264 333.974ZM247.791 405.931V335.857C247.791 335.366 247.986 334.895 248.333 334.548C248.68 334.201 249.151 334.006 249.641 334.006H349.988C350.316 334.005 350.641 334.068 350.945 334.193C351.248 334.318 351.524 334.501 351.757 334.733C351.989 334.964 352.174 335.239 352.3 335.542C352.426 335.846 352.491 336.17 352.491 336.499V405.366C352.491 405.694 352.426 406.02 352.3 406.323C352.174 406.627 351.99 406.903 351.758 407.135C351.525 407.368 351.249 407.552 350.945 407.678C350.642 407.804 350.316 407.869 349.988 407.869H249.729C249.215 407.869 248.722 407.665 248.359 407.301C247.996 406.938 247.791 406.445 247.791 405.931V405.931ZM249.707 331.373C249.199 331.373 248.712 331.171 248.352 330.812C247.993 330.453 247.791 329.965 247.791 329.457V279.559C247.79 279.325 247.835 279.092 247.924 278.875C248.014 278.657 248.145 278.46 248.311 278.294C248.477 278.128 248.674 277.997 248.892 277.908C249.109 277.818 249.341 277.773 249.576 277.775H350.706C351.179 277.775 351.633 277.963 351.968 278.297C352.303 278.632 352.491 279.086 352.491 279.559V328.957C352.491 329.598 352.236 330.212 351.783 330.665C351.33 331.118 350.715 331.373 350.075 331.373H249.707ZM100.042 404.713V283.815C100.042 283.021 100.198 282.236 100.502 281.503C100.805 280.77 101.25 280.105 101.811 279.544C102.372 278.983 103.037 278.538 103.77 278.234C104.503 277.931 105.288 277.775 106.081 277.775H136.944C137.417 277.775 137.871 277.963 138.206 278.297C138.541 278.632 138.729 279.086 138.729 279.559V405.072C138.729 405.813 138.434 406.525 137.909 407.049C137.385 407.574 136.674 407.869 135.932 407.869H103.209C102.793 407.87 102.382 407.789 101.997 407.632C101.613 407.474 101.264 407.241 100.97 406.948C100.676 406.655 100.442 406.306 100.283 405.923C100.124 405.539 100.042 405.128 100.042 404.713V404.713ZM349.171 569.73H143.647C142.732 569.73 141.855 569.366 141.208 568.719C140.561 568.072 140.198 567.195 140.198 566.28V411.264H352.589V566.28C352.589 567.189 352.23 568.062 351.59 568.708C350.95 569.354 350.081 569.721 349.171 569.73V569.73ZM390.677 404.713C390.677 405.55 390.344 406.352 389.752 406.944C389.161 407.536 388.358 407.869 387.521 407.869H356.941C356.2 407.869 355.488 407.574 354.964 407.049C354.439 406.525 354.145 405.813 354.145 405.072V279.559C354.145 279.086 354.333 278.632 354.667 278.297C355.002 277.963 355.456 277.775 355.929 277.775H384.626C385.42 277.773 386.206 277.928 386.939 278.231C387.673 278.534 388.339 278.979 388.9 279.54C389.461 280.102 389.906 280.768 390.209 281.502C390.512 282.235 390.667 283.021 390.666 283.815L390.677 404.713Z" fill="#2D2D2D"/>
<path d="M629.468 84.6688C627.269 82.3364 624.613 80.4816 621.667 79.2197C618.72 77.9578 615.545 77.3158 612.339 77.3337V77.3337L541.604 80.185C540.396 80.185 539.656 79.2817 539.047 78.2479L536.174 73.4376C534.69 71.0649 532.617 69.1164 530.157 67.7816C527.697 66.4467 524.934 65.7708 522.136 65.8196H472.142C470.389 65.8001 468.661 66.2424 467.133 67.102C465.605 67.9616 464.33 69.2084 463.436 70.7169C460.172 76.4413 463.708 83.1234 469.073 84.9517C469.603 85.1314 470.064 85.4727 470.389 85.9275C470.715 86.3823 470.891 86.9278 470.891 87.4874V179.818C470.891 180.643 471.219 181.435 471.802 182.019C472.386 182.602 473.178 182.93 474.003 182.93H630.709C631.521 182.931 632.302 182.613 632.883 182.046C633.465 181.478 633.801 180.706 633.821 179.894L635.889 102.136C636.077 98.9393 635.604 95.7384 634.499 92.7331C633.394 89.7277 631.682 86.9824 629.468 84.6688V84.6688ZM465.417 75.353C465.42 73.6837 466.085 72.0838 467.266 70.9044C468.448 69.7251 470.049 69.0627 471.718 69.0627H522.147C524.399 69.0081 526.627 69.5451 528.607 70.6202C530.587 71.6953 532.25 73.2709 533.432 75.1898L535.858 79.0641C535.92 79.1638 535.953 79.2787 535.953 79.396C535.953 79.5133 535.92 79.6282 535.858 79.7279C535.801 79.8309 535.718 79.9166 535.616 79.976C535.515 80.0354 535.399 80.0662 535.282 80.0653L471.87 82.1657C468.431 82.1657 465.417 78.8246 465.417 75.353V75.353ZM632.461 101.973L630.459 177.271C630.436 177.856 630.188 178.41 629.766 178.816C629.343 179.222 628.781 179.448 628.195 179.448H476.56C475.958 179.445 475.381 179.204 474.955 178.778C474.529 178.352 474.289 177.776 474.286 177.173V86.3229L612.405 80.7618C615.138 80.7604 617.842 81.317 620.352 82.3974C622.862 83.4778 625.126 85.0593 627.003 87.045C628.881 89.0308 630.333 91.379 631.272 93.9458C632.21 96.5125 632.615 99.2439 632.461 101.973V101.973Z" fill="#2D2D2D"/>
<path d="M508.729 65.6019L506.868 62.7179L507.586 62.2499L509.447 65.1339L508.729 65.6019ZM528.317 65.1992L526.347 62.3805L527.054 61.8908L529.024 64.7095L528.317 65.1992ZM505.007 59.8557L503.146 56.9826L503.864 56.5147L505.725 59.3986L505.007 59.8557ZM524.356 59.5945L522.353 56.765L523.061 56.2752L525.019 59.083L524.356 59.5945ZM501.274 54.1531L499.413 51.1494L500.132 50.6814L502.003 53.5654L501.274 54.1531ZM520.416 54.0334L518.457 51.1494L519.154 50.6597L521.124 53.4675L520.416 54.0334ZM516.488 48.4069L514.518 45.5991L515.225 45.0985L517.195 47.8845L516.488 48.4069ZM497.552 48.4069L496.595 46.7963C496.282 46.2975 496.019 45.7689 495.811 45.2182L496.617 44.9244C496.799 45.4172 497.037 45.8881 497.324 46.3283L498.271 47.8084L497.552 48.4069ZM512.559 42.7043L510.589 39.8965L511.297 39.4068L513.267 42.2146L512.559 42.7043ZM496.236 41.7792L495.376 41.6922C495.507 40.4864 495.909 39.3257 496.551 38.2967L497.28 38.7538C496.704 39.6685 496.347 40.7038 496.236 41.7792V41.7792ZM508.565 37.2628C507.761 36.5376 506.811 35.9922 505.779 35.6631L506.03 34.8251C507.186 35.1838 508.249 35.7932 509.142 36.6099L508.565 37.2628ZM499.598 36.4466L499.087 35.7501C500.11 35.1051 501.261 34.6893 502.46 34.5312L502.569 35.3801C501.511 35.5196 500.494 35.8832 499.587 36.4466H499.598Z" fill="#2D2D2D"/>
</svg>
