<svg width="740" height="604" viewBox="0 0 740 604" fill="none" xmlns="http://www.w3.org/2000/svg">
<path d="M713.954 603.62H26.0367C19.2295 603.62 12.7011 600.916 7.88767 596.102C3.07426 591.289 0.370117 584.761 0.370117 577.953V26.0265C0.380714 19.2262 3.08954 12.7081 7.9018 7.90333C12.7141 3.09856 19.2364 0.399894 26.0367 0.399902H713.944C717.315 0.399902 720.654 1.06412 723.768 2.35461C726.883 3.6451 729.713 5.53659 732.096 7.92101C734.48 10.3054 736.37 13.1361 737.659 16.2512C738.949 19.3664 739.612 22.7051 739.61 26.0765V578.003C739.61 584.811 736.906 591.339 732.093 596.152C727.279 600.966 720.751 603.67 713.944 603.67" fill="#EAEAEA"/>
<path d="M92.0026 166.491C92.2998 166.491 92.594 166.431 92.8676 166.315C93.1412 166.199 93.3885 166.029 93.5949 165.815C93.8145 166.164 94.1186 166.452 94.479 166.652C94.8394 166.852 95.2445 166.959 95.6568 166.961C96.4163 166.961 97.1447 166.659 97.6818 166.122C98.2188 165.584 98.5206 164.855 98.5206 164.095C98.5206 163.336 98.2188 162.607 97.6818 162.069C97.1447 161.532 96.4163 161.23 95.6568 161.23C95.2447 161.233 94.84 161.34 94.4798 161.54C94.1195 161.74 93.8153 162.028 93.5949 162.376C93.3885 162.162 93.1412 161.992 92.8676 161.876C92.594 161.76 92.2998 161.7 92.0026 161.7C91.3798 161.7 90.7825 161.948 90.3421 162.388C89.9017 162.829 89.6543 163.427 89.6543 164.05C89.6543 164.673 89.9017 165.27 90.3421 165.711C90.7825 166.152 91.3798 166.399 92.0026 166.399V166.491ZM95.6682 162.617C96.0723 162.617 96.4598 162.778 96.7455 163.063C97.0312 163.349 97.1918 163.737 97.1918 164.141C97.1918 164.546 97.0312 164.933 96.7455 165.219C96.4598 165.505 96.0723 165.666 95.6682 165.666C95.2642 165.666 94.8766 165.505 94.5909 165.219C94.3052 164.933 94.1447 164.546 94.1447 164.141C94.1447 163.737 94.3052 163.349 94.5909 163.063C94.8766 162.778 95.2642 162.617 95.6682 162.617ZM92.0026 163.03C92.2292 163.03 92.4506 163.097 92.639 163.223C92.8274 163.349 92.9742 163.528 93.0609 163.737C93.1476 163.947 93.1703 164.177 93.1261 164.399C93.0819 164.622 92.9728 164.826 92.8126 164.986C92.6524 165.146 92.4483 165.256 92.2261 165.3C92.0039 165.344 91.7735 165.321 91.5642 165.235C91.3549 165.148 91.176 165.001 91.0501 164.812C90.9243 164.624 90.8571 164.402 90.8571 164.176C90.8488 164.023 90.8728 163.87 90.9274 163.728C90.9821 163.585 91.0662 163.455 91.1742 163.347C91.2823 163.239 91.4119 163.155 91.5546 163.1C91.6974 163.045 91.85 163.021 92.0026 163.03V163.03Z" fill="#2D2D2D"/>
<path d="M91.1204 156.921L98.108 159.545V158.113L89.9863 155.121V159.912H91.1204V156.921Z" fill="#2D2D2D"/>
<path d="M124.523 98.1139C125.749 105.747 131.328 112.073 135.795 116.05C136.481 116.66 136.923 117.499 137.036 118.41C137.15 119.321 136.929 120.242 136.414 121.002C132.771 126.331 128.98 134.755 129.289 142.526C129.77 154.892 136.276 165.115 142.119 169.379C142.681 169.778 143.11 170.336 143.351 170.982C143.592 171.628 143.634 172.331 143.47 173.001C138.991 191.831 142.68 207.774 154.456 220.381C156.001 221.89 157.276 223.654 158.224 225.596C158.339 231.727 158.385 242.89 158.373 258.753V260.403C158.373 260.88 158.563 261.338 158.9 261.675C159.237 262.013 159.695 262.202 160.172 262.202H169.13C169.607 262.202 170.064 262.013 170.401 261.675C170.739 261.338 170.928 260.88 170.928 260.403V237.481C170.928 233.709 172.426 230.091 175.092 227.423C177.758 224.756 181.374 223.258 185.144 223.258H592.946C596.716 223.261 600.331 224.76 602.999 227.426C605.666 230.093 607.167 233.708 607.173 237.481V260.403C607.172 260.639 607.217 260.873 607.306 261.091C607.395 261.309 607.526 261.507 607.692 261.675C607.858 261.842 608.056 261.975 608.274 262.065C608.491 262.156 608.724 262.202 608.96 262.202H617.918C618.395 262.202 618.852 262.013 619.19 261.675C619.527 261.338 619.716 260.88 619.716 260.403V258.753C619.716 242.879 619.716 231.727 619.854 225.687C620.737 223.713 621.98 221.922 623.519 220.404C635.295 207.797 639.007 191.854 634.528 173.024C634.362 172.356 634.4 171.654 634.637 171.009C634.874 170.363 635.299 169.803 635.857 169.402C641.699 165.138 648.205 154.915 648.698 142.549C648.996 134.778 645.261 126.331 641.561 121.025C641.049 120.264 640.829 119.343 640.943 118.433C641.056 117.523 641.496 116.684 642.18 116.073C646.647 112.096 652.237 105.758 653.452 98.1024L653.566 97.3689C654.304 92.4925 653.98 87.5143 652.616 82.7747C651.253 78.0352 648.883 73.6462 645.667 69.9079C642.452 66.1697 638.468 63.1703 633.987 61.1151C629.506 59.0599 624.634 57.9973 619.705 58H158.305C153.369 57.9966 148.491 59.0605 144.004 61.1189C139.518 63.1773 135.529 66.1816 132.311 69.9259C129.093 73.6702 126.722 78.0662 125.36 82.8127C123.998 87.5592 123.678 92.5442 124.42 97.4262C124.455 97.6554 124.489 97.8846 124.523 98.1139ZM135.005 72.3149C137.887 68.9547 141.462 66.2582 145.483 64.4104C149.505 62.5626 153.879 61.6074 158.305 61.6103H619.705C624.117 61.6029 628.478 62.5487 632.491 64.3832C636.504 66.2177 640.073 68.8974 642.955 72.2393C645.838 75.5812 647.965 79.5064 649.191 83.7466C650.417 87.9867 650.714 92.4418 650.061 96.8073V96.8073L649.946 97.5408C648.801 104.417 643.142 110.412 639.832 113.357C638.509 114.559 637.664 116.198 637.454 117.974C637.243 119.749 637.681 121.541 638.686 123.019C642.867 129.105 645.422 136.692 645.193 142.377C644.757 153.54 638.995 162.697 633.829 166.445C632.702 167.264 631.843 168.399 631.362 169.707C630.881 171.015 630.799 172.437 631.126 173.792C635.307 191.384 631.893 206.215 620.988 217.905C620.209 218.742 616.303 223.051 616.268 225.504C616.154 231.636 616.108 242.764 616.119 258.569H610.758V237.561C610.758 235.221 610.298 232.904 609.402 230.743C608.507 228.581 607.195 226.617 605.541 224.963C603.886 223.309 601.923 221.997 599.762 221.103C597.6 220.209 595.284 219.749 592.946 219.751H185.144C183.046 219.767 180.967 220.155 179.004 220.897C177.036 221.613 175.212 222.676 173.62 224.037C171.648 225.707 170.063 227.787 168.977 230.133C167.891 232.479 167.329 235.033 167.331 237.618V258.684H161.97C161.97 242.879 161.97 231.75 161.821 225.607C161.821 223.682 159.244 220.312 157.09 218.008C146.197 206.341 142.783 191.499 146.976 173.906C147.297 172.549 147.21 171.127 146.725 169.82C146.239 168.512 145.378 167.378 144.249 166.56C139.083 162.789 133.321 153.631 132.886 142.491C132.668 136.829 135.177 129.231 139.392 123.133C140.407 121.659 140.85 119.865 140.64 118.087C140.429 116.309 139.578 114.668 138.247 113.472C134.959 110.538 129.254 104.578 128.143 97.6783C128.143 97.4033 128.063 97.1282 128.029 96.9104C127.346 92.5535 127.616 88.1002 128.82 83.8578C130.025 79.6155 132.135 75.6851 135.005 72.3378V72.3149Z" fill="#2D2D2D"/>
<path d="M370.283 290.563H374.479V289.573H371.788L373.932 287.016C374.293 286.635 374.51 286.119 374.51 285.552C374.51 284.346 373.489 283.356 372.231 283.356C370.973 283.356 369.953 284.346 369.953 285.552C369.953 286.697 370.85 287.625 372.004 287.738L369.674 290.553H370.293L370.283 290.563ZM372.231 286.686C371.582 286.686 371.097 286.181 371.097 285.552C371.097 284.923 371.582 284.418 372.231 284.418C372.881 284.418 373.365 284.923 373.365 285.552C373.365 286.181 372.881 286.686 372.231 286.686ZM377.833 290.718C379.163 290.718 380.235 289.687 380.235 288.408C380.235 287.449 379.637 286.625 378.771 286.274C378.483 286.15 378.163 286.088 377.833 286.088V284.542H380.163V283.562H376.709V287.099L377.246 287.315C377.41 287.223 377.606 287.171 377.833 287.171C378.545 287.171 379.07 287.717 379.07 288.408C379.07 289.089 378.545 289.635 377.833 289.635C377.122 289.635 376.596 289.089 376.596 288.408H375.431C375.431 289.687 376.503 290.718 377.833 290.718ZM383.673 290.718C385.003 290.718 386.075 289.687 386.075 288.408C386.075 287.449 385.477 286.625 384.611 286.274C384.322 286.15 384.003 286.088 383.673 286.088V284.542H386.003V283.562H382.549V287.099L383.085 287.315C383.25 287.223 383.446 287.171 383.673 287.171C384.384 287.171 384.91 287.717 384.91 288.408C384.91 289.089 384.384 289.635 383.673 289.635C382.961 289.635 382.436 289.089 382.436 288.408H381.271C381.271 289.687 382.343 290.718 383.673 290.718Z" fill="#2D2D2D"/>
<path d="M108.819 58.894H108.521V60.086H108.819V58.894Z" fill="#2D2D2D"/>
<path d="M108.819 257.515H108.521V255.131H108.819V257.515ZM108.819 252.701H108.521V250.283H108.819V252.701ZM108.819 247.876H108.521V245.469H108.819V247.876ZM108.819 243.062H108.521V240.655H108.819V243.062ZM108.819 238.249H108.521V235.842H108.819V238.249ZM108.819 233.435H108.521V231.063H108.819V233.435ZM108.819 228.621H108.521V226.215H108.819V228.621ZM108.819 223.808H108.521V221.401H108.819V223.808ZM108.819 218.994H108.521V216.587H108.819V218.994ZM108.819 214.169H108.521V211.762H108.819V214.169ZM108.819 209.355H108.521V206.994H108.819V209.355ZM108.819 204.542H108.521V202.135H108.819V204.542ZM108.819 199.728H108.521V197.321H108.819V199.728ZM108.819 194.914H108.521V192.507H108.819V194.914ZM108.819 190.101H108.521V187.694H108.819V190.101ZM108.819 185.287H108.521V182.926H108.819V185.287ZM108.819 180.473H108.521V178.055H108.819V180.473ZM108.819 175.648H108.521V173.241H108.819V175.648ZM108.819 170.834H108.521V168.428H108.819V170.834ZM108.819 166.021H108.521V163.614H108.819V166.021ZM108.819 161.207H108.521V158.858H108.819V161.207ZM108.819 156.393H108.521V153.987H108.819V156.393ZM108.819 151.58H108.521V149.173H108.819V151.58ZM108.819 146.766H108.521V144.359H108.819V146.766ZM108.819 141.941H108.521V139.534H108.819V141.941ZM108.819 137.127H108.521V134.721H108.819V137.127ZM108.819 132.314H108.521V129.907H108.819V132.314ZM108.819 127.5H108.521V125.093H108.819V127.5ZM108.819 122.686H108.521V120.28H108.819V122.686ZM108.819 117.873H108.521V115.466H108.819V117.873ZM108.819 113.059H108.521V110.652H108.819V113.059ZM108.819 108.234H108.521V105.827H108.819V108.234ZM108.819 103.42H108.521V101.013H108.819V103.42ZM108.819 98.6066H108.521V96.1998H108.819V98.6066ZM108.819 93.7929H108.521V91.3861H108.819V93.7929ZM108.819 88.9793H108.521V86.5725H108.819V88.9793ZM108.819 84.1656H108.521V81.7588H108.819V84.1656ZM108.819 79.352H108.521V76.9451H108.819V79.352ZM108.819 74.5383H108.521V72.12H108.819V74.5383ZM108.819 69.7132H108.521V67.3063H108.819V69.7132ZM108.819 64.8995H108.521V62.4927H108.819V64.8995Z" fill="#2D2D2D"/>
<path d="M108.819 259.922H108.521V261.114H108.819V259.922Z" fill="#2D2D2D"/>
<path d="M339.181 532.65H330.349C330.115 532.652 329.884 532.607 329.668 532.518C329.451 532.429 329.255 532.298 329.09 532.133C328.925 531.968 328.794 531.772 328.705 531.555C328.617 531.339 328.572 531.107 328.573 530.874V514.152C328.625 509.775 327.236 505.502 324.621 501.992C322.811 499.615 320.477 497.688 317.801 496.362C315.124 495.036 312.178 494.347 309.191 494.347H186.003C183.953 494.321 181.922 494.735 180.046 495.562C177.577 496.671 175.48 498.47 174.009 500.744C172.537 503.017 171.754 505.667 171.753 508.376V530.92C171.754 531.153 171.709 531.385 171.621 531.601C171.532 531.817 171.401 532.014 171.236 532.179C171.071 532.344 170.875 532.475 170.659 532.564C170.442 532.653 170.211 532.697 169.977 532.696H161.145C160.912 532.696 160.681 532.65 160.466 532.561C160.251 532.471 160.055 532.341 159.89 532.176C159.725 532.011 159.594 531.815 159.505 531.599C159.416 531.384 159.37 531.153 159.37 530.92V529.258C159.37 513.625 159.37 502.634 159.221 496.605C158.299 494.679 157.043 492.933 155.509 491.447C138.854 473.625 141.557 452.801 143.493 444.698C143.652 444.047 143.614 443.364 143.384 442.735C143.153 442.106 142.741 441.561 142.199 441.168C136.471 436.973 129.976 426.864 129.506 414.647C129.209 407.014 132.943 398.681 136.54 393.421C137.048 392.671 137.265 391.761 137.151 390.863C137.037 389.964 136.6 389.138 135.921 388.538C131.522 384.619 126.013 378.361 124.81 370.854L124.695 370.097C123.975 365.287 124.301 360.377 125.651 355.704C127.001 351.031 129.343 346.704 132.517 343.02C135.692 339.336 139.624 336.38 144.045 334.356C148.465 332.332 153.271 331.286 158.133 331.29H322.708C328.422 331.29 333.902 333.559 337.944 337.6C341.987 341.64 344.261 347.12 344.267 352.837L344.393 447.884C344.39 448.268 344.484 448.647 344.667 448.986C344.849 449.324 345.113 449.611 345.435 449.821C352.675 454.405 357.131 463.574 357.394 469.912C357.394 470.703 357.394 471.528 357.394 472.342C357.229 475.94 356.331 479.466 354.755 482.704C353.179 485.942 350.959 488.824 348.23 491.172C347.448 491.749 346.629 492.273 345.779 492.743C345.103 493.132 343.843 493.889 342.778 494.611C342.225 494.997 341.775 495.512 341.466 496.111C341.157 496.71 340.997 497.375 341.002 498.049V530.92C340.998 531.153 340.947 531.384 340.853 531.598C340.758 531.812 340.623 532.005 340.453 532.166C340.284 532.327 340.084 532.453 339.865 532.536C339.647 532.619 339.414 532.658 339.181 532.65V532.65ZM332.113 529.109H337.405V496.238C337.405 493.465 340.842 491.447 343.935 489.66C344.626 489.281 345.295 488.864 345.939 488.41C348.293 486.375 350.207 483.881 351.566 481.081C352.925 478.281 353.7 475.233 353.843 472.124C354.153 467.081 351.38 459.758 346.18 454.657C343.809 452.365 341.002 452.033 340.853 449.454V353.536C340.855 351.072 340.371 348.631 339.429 346.354C338.487 344.077 337.106 342.009 335.364 340.266C333.623 338.524 331.555 337.142 329.279 336.199C327.003 335.257 324.564 334.773 322.101 334.774H158.751C151.703 334.698 144.837 337.018 139.278 341.353C135.113 344.652 131.895 348.995 129.949 353.941C128.004 358.886 127.401 364.259 128.2 369.513L128.304 370.178C129.346 376.71 134.306 382.292 138.281 385.833C139.592 387.015 140.431 388.633 140.642 390.386C140.852 392.14 140.421 393.91 139.426 395.369C135.314 401.386 132.794 408.882 133.012 414.452C133.435 425.477 139.117 434.497 144.215 438.222C145.329 439.03 146.178 440.151 146.656 441.442C147.133 442.734 147.216 444.138 146.895 445.477C145.097 453.03 142.588 472.411 158.064 489.029C158.843 489.854 162.646 494.095 162.726 496.536C162.841 502.576 162.887 513.544 162.875 529.154H168.167V508.33C168.168 505.173 169.019 502.075 170.632 499.362C172.245 496.649 174.559 494.422 177.331 492.915C180.037 491.46 183.069 490.718 186.14 490.76H309.191C312.723 490.756 316.207 491.569 319.373 493.136C322.538 494.703 325.299 496.98 327.439 499.791C330.527 503.937 332.169 508.982 332.113 514.152V529.109Z" fill="#2D2D2D"/>
<path d="M96.1443 435.935C96.1443 434.574 95.1443 433.491 93.9174 433.491C93.1854 433.491 92.5358 433.883 92.1337 434.491C91.7832 434.131 91.2986 433.914 90.7625 433.914C89.6903 433.914 88.8139 434.811 88.8139 435.935C88.8139 437.059 89.6903 437.956 90.7625 437.956C91.2986 437.956 91.7832 437.739 92.1337 437.378C92.5358 437.986 93.1854 438.378 93.9174 438.378C95.1443 438.378 96.1443 437.296 96.1443 435.935ZM91.7007 435.935C91.7007 436.481 91.2883 436.894 90.7625 436.894C90.2264 436.894 89.814 436.481 89.814 435.935C89.814 435.388 90.2264 434.976 90.7625 434.976C91.2883 434.976 91.7007 435.388 91.7007 435.935ZM95.1649 435.935C95.1649 436.687 94.6185 437.244 93.9277 437.244C93.2472 437.244 92.7111 436.687 92.7111 435.935C92.7111 435.182 93.2472 434.625 93.9277 434.625C94.6185 434.625 95.1649 435.182 95.1649 435.935ZM96 431.972V430.745L88.9995 428.167V432.291H89.979V429.714L96 431.972Z" fill="#2D2D2D"/>
<path d="M246.098 542.318H250.294V541.328H247.603L249.748 538.771C250.109 538.39 250.325 537.874 250.325 537.307C250.325 536.101 249.304 535.111 248.047 535.111C246.789 535.111 245.768 536.101 245.768 537.307C245.768 538.451 246.665 539.379 247.82 539.493L245.49 542.307H246.108L246.098 542.318ZM248.047 538.441C247.397 538.441 246.912 537.936 246.912 537.307C246.912 536.678 247.397 536.173 248.047 536.173C248.696 536.173 249.181 536.678 249.181 537.307C249.181 537.936 248.696 538.441 248.047 538.441ZM254.025 542.472C255.799 542.503 256.624 540.812 256.593 538.812C256.624 536.812 255.799 535.183 254.025 535.152C252.252 535.183 251.407 536.812 251.438 538.812C251.407 540.812 252.252 542.503 254.025 542.472ZM254.025 541.41C252.809 541.41 252.592 539.926 252.592 538.812C252.592 537.709 252.809 536.204 254.025 536.204C255.242 536.204 255.438 537.709 255.438 538.812C255.438 539.926 255.242 541.41 254.025 541.41Z" fill="#2D2D2D"/>
<path d="M108.532 331.749H108.234V332.941H108.532V331.749Z" fill="#2D2D2D"/>
<path d="M108.532 530.369H108.234V527.962H108.532V530.369ZM108.532 525.556H108.234V523.149H108.532V525.556ZM108.532 520.742H108.234V518.335H108.532V520.742ZM108.532 515.928H108.234V513.521H108.532V515.928ZM108.532 511.115H108.234V508.708H108.532V511.115ZM108.532 506.301H108.234V503.837H108.532V506.301ZM108.532 501.476H108.234V499.069H108.532V501.476ZM108.532 496.662H108.234V494.255H108.532V496.662ZM108.532 491.849H108.234V489.442H108.532V491.849ZM108.532 487.035H108.234V484.628H108.532V487.035ZM108.532 482.221H108.234V479.769H108.532V482.221ZM108.532 477.408H108.234V475.001H108.532V477.408ZM108.532 472.594H108.234V470.187H108.532V472.594ZM108.532 467.769H108.234V465.362H108.532V467.769ZM108.532 462.955H108.234V460.548H108.532V462.955ZM108.532 458.141H108.234V455.7H108.532V458.141ZM108.532 453.328H108.234V450.921H108.532V453.328ZM108.532 448.514H108.234V446.107H108.532V448.514ZM108.532 443.7H108.234V441.294H108.532V443.7ZM108.532 438.887H108.234V436.468H108.532V438.887ZM108.532 434.062H108.234V431.632H108.532V434.062ZM108.532 429.248H108.234V426.841H108.532V429.248ZM108.532 424.434H108.234V422.027H108.532V424.434ZM108.532 419.621H108.234V417.214H108.532V419.621ZM108.532 414.807H108.234V412.4H108.532V414.807ZM108.532 409.993H108.234V407.564H108.532V409.993ZM108.532 405.18H108.234V402.773H108.532V405.18ZM108.532 400.355H108.234V397.948H108.532V400.355ZM108.532 395.541H108.234V393.134H108.532V395.541ZM108.532 390.727H108.234V388.32H108.532V390.727ZM108.532 385.914H108.234V383.495H108.532V385.914ZM108.532 381.1H108.234V378.693H108.532V381.1ZM108.532 376.286H108.234V373.879H108.532V376.286ZM108.532 371.473H108.234V369.066H108.532V371.473ZM108.532 366.659H108.234V364.252H108.532V366.659ZM108.532 361.834H108.234V359.427H108.532V361.834ZM108.532 357.02H108.234V354.613H108.532V357.02ZM108.532 352.206H108.234V349.8H108.532V352.206ZM108.532 347.393H108.234V344.986H108.532V347.393ZM108.532 342.579H108.234V340.172H108.532V342.579ZM108.532 337.765H108.234V335.359H108.532V337.765Z" fill="#2D2D2D"/>
<path d="M108.532 532.776H108.234V533.968H108.532V532.776Z" fill="#2D2D2D"/>
<path d="M566.061 211.659H211.525C204.406 211.659 197.517 209.134 192.083 204.532C186.648 199.93 183.021 193.55 181.845 186.525L178.569 166.88C178.136 164.293 178.272 161.642 178.967 159.112C179.663 156.582 180.9 154.234 182.595 152.231C184.289 150.228 186.399 148.619 188.778 147.515C191.157 146.411 193.747 145.839 196.37 145.838H580.918C583.519 145.836 586.09 146.397 588.454 147.482C590.819 148.567 592.921 150.15 594.617 152.124C596.313 154.097 597.562 156.414 598.28 158.915C598.998 161.417 599.168 164.044 598.776 166.617L595.821 186.101C594.731 193.216 591.131 199.706 585.672 204.394C580.212 209.083 573.255 211.66 566.061 211.659V211.659Z" stroke="#2D2D2D" stroke-width="2" stroke-miterlimit="10"/>
<path d="M158.351 277.572H288.332H599.842" stroke="black" stroke-width="0.5" stroke-miterlimit="10" stroke-dasharray="3 3"/>
</svg>
