<svg xmlns="http://www.w3.org/2000/svg" viewBox="0 0 178.56 20.1"><defs><style>.cls-1{fill:#231f20;}</style></defs><title>Asset 1</title><g id="Layer_2" data-name="Layer 2"><g id="Шар_2" data-name="Шар 2"><path class="cls-1" d="M76,0A1.43,1.43,0,0,0,74.6,1.43V17c0,.09-.21.29-.56.29H72a1.46,1.46,0,0,1-1.21-.69L66,2.61a3.55,3.55,0,0,0-6.84,0L54.32,16.55a1.46,1.46,0,0,1-1.21.69h-2a1.46,1.46,0,0,1-1.21-.69L45.06,2.61A3.85,3.85,0,0,0,41.64,0a3.88,3.88,0,0,0-3.42,2.61L33.39,16.55a1.13,1.13,0,0,1-.71.69,1.12,1.12,0,0,1-.72-.69L27.12,2.61A3.85,3.85,0,0,0,23.7,0a3.88,3.88,0,0,0-3.42,2.61L15.45,16.55a1.48,1.48,0,0,1-1.22.69H0c.06,1,0,1.91,0,2.86H14.23a4.22,4.22,0,0,0,3.92-2.61L23,3.55a1.16,1.16,0,0,1,.71-.69,1.17,1.17,0,0,1,.72.69l4.83,13.94a3.88,3.88,0,0,0,3.42,2.61,3.85,3.85,0,0,0,3.42-2.61L40.93,3.55a1.16,1.16,0,0,1,.71-.69,1.15,1.15,0,0,1,.72.69L47.2,17.49a4.22,4.22,0,0,0,3.91,2.61h2A4.22,4.22,0,0,0,57,17.49L61.86,3.55a1.16,1.16,0,0,1,.71-.69,1.15,1.15,0,0,1,.72.69l4.84,13.94A4.22,4.22,0,0,0,72,20.1h2A3.29,3.29,0,0,0,77.46,17V1.43A1.43,1.43,0,0,0,76,0Z"/><path class="cls-1" d="M178.56,17.24h-13a.83.83,0,0,1-.52-.19l-6.35-5.49-.07-.07h3.12c3.64,0,7.41-2.14,7.41-5.74S165.39,0,161.75,0h-9a1.43,1.43,0,0,0-1.43,1.43V17.24H145.8a1.46,1.46,0,0,1-1.21-.69L139.75,2.61a3.55,3.55,0,0,0-6.84,0l-4.83,13.94a1.48,1.48,0,0,1-1.21.69h-8c-.35,0-.56-.2-.56-.29V2.86h7.54a1.43,1.43,0,0,0,0-2.86H100c-3.64,0-7.41,2.15-7.41,5.74s3.77,5.74,7.41,5.74c2.15,0,4.55,1.19,4.55,2.88a2.45,2.45,0,0,1-1.23,1.94,6.07,6.07,0,0,1-3.32.94H90.09a1.3,1.3,0,0,1-.9-.36L82.34,10.3a.34.34,0,0,1-.11-.25.36.36,0,0,1,.11-.25L90,2.46A1.43,1.43,0,0,0,88,.4L80.43,7.67a3.4,3.4,0,0,0-1,1.78,3.25,3.25,0,0,0,.94,2.92L88,19.7a1.28,1.28,0,0,0,.49.31h0a1.43,1.43,0,0,0,.42.09h11a9.05,9.05,0,0,0,4.91-1.42,5.18,5.18,0,0,0,2.5-4.32c0-3.59-3.77-5.74-7.41-5.74-2.15,0-4.55-1.18-4.55-2.88S97.8,2.86,100,2.86h15.51V17a3.3,3.3,0,0,0,3.43,3.15h8a4.22,4.22,0,0,0,3.91-2.61l4.84-13.94a1.16,1.16,0,0,1,.71-.69,1.15,1.15,0,0,1,.72.69l4.83,13.94a4.23,4.23,0,0,0,3.92,2.61h7a1.43,1.43,0,0,0,1.43-1.43V3.07a.22.22,0,0,1,.21-.21h7.33c2.15,0,4.55,1.19,4.55,2.88s-2.4,2.88-4.55,2.88h-3a2.91,2.91,0,0,0-2.92,1.76,3.07,3.07,0,0,0,1,3.34l7,6a1.44,1.44,0,0,0,.93.34h13.77C178.52,19.15,178.53,18.2,178.56,17.24Z"/></g></g></svg>