<svg width="734" height="584" viewBox="0 0 734 584" fill="none" xmlns="http://www.w3.org/2000/svg">
<path d="M707.38 0H25.67C11.4929 0 0 11.4929 0 25.67V557.38C0 571.557 11.4929 583.05 25.67 583.05H707.38C721.557 583.05 733.05 571.557 733.05 557.38V25.67C733.05 11.4929 721.557 0 707.38 0Z" fill="#EAEAEA"/>
<path d="M145.9 178.34V390.43" stroke="black" stroke-width="0.75" stroke-miterlimit="10" stroke-dasharray="5 5"/>
<path d="M171.66 152.87H566.37" stroke="black" stroke-width="0.75" stroke-miterlimit="10" stroke-dasharray="5 5"/>
<path d="M528.4 182.28H209.67C189.34 182.28 172.86 198.761 172.86 219.09V338.43C172.86 358.76 189.34 375.24 209.67 375.24H528.4C548.729 375.24 565.21 358.76 565.21 338.43V219.09C565.21 198.761 548.729 182.28 528.4 182.28Z" stroke="black" stroke-width="3" stroke-miterlimit="10"/>
<path d="M210.8 375.51H232.52V386.51C232.52 387.407 232.164 388.266 231.53 388.9C230.896 389.534 230.037 389.89 229.14 389.89H214.18C213.284 389.89 212.424 389.534 211.79 388.9C211.156 388.266 210.8 387.407 210.8 386.51V375.51V375.51Z" stroke="black" stroke-width="2" stroke-miterlimit="10"/>
<path d="M501.07 375.51H522.79V386.51C522.79 387.407 522.434 388.266 521.8 388.9C521.166 389.534 520.307 389.89 519.41 389.89H504.48C503.584 389.89 502.724 389.534 502.09 388.9C501.456 388.266 501.1 387.407 501.1 386.51V375.51H501.07Z" stroke="black" stroke-width="2" stroke-miterlimit="10"/>
<path d="M369.39 188.03C462.168 188.03 537.38 185.868 537.38 183.2C537.38 180.533 462.168 178.37 369.39 178.37C276.612 178.37 201.4 180.533 201.4 183.2C201.4 185.868 276.612 188.03 369.39 188.03Z" fill="#EAEAEA" stroke="black" stroke-miterlimit="10"/>
<path d="M175.06 206.26L179.31 210.49" stroke="black" stroke-width="0.5" stroke-miterlimit="10"/>
<path d="M187.78 218.93L336.03 366.55" stroke="black" stroke-width="0.5" stroke-miterlimit="10" stroke-dasharray="11.96 11.96"/>
<path d="M340.27 370.77L344.52 375" stroke="black" stroke-width="0.5" stroke-miterlimit="10"/>
<path d="M268.08 187.22L272.39 191.39" stroke="black" stroke-width="0.5" stroke-miterlimit="10"/>
<path d="M281.23 199.93L453.62 366.48" stroke="black" stroke-width="0.5" stroke-miterlimit="10" stroke-dasharray="12.29 12.29"/>
<path d="M458.04 370.75L462.36 374.91" stroke="black" stroke-width="0.5" stroke-miterlimit="10"/>
<path d="M381.79 188L386.07 192.2" stroke="black" stroke-width="0.5" stroke-miterlimit="10"/>
<path d="M394.89 200.84L549.15 351.97" stroke="black" stroke-width="0.5" stroke-miterlimit="10" stroke-dasharray="12.34 12.34"/>
<path d="M553.56 356.29L557.85 360.49" stroke="black" stroke-width="0.5" stroke-miterlimit="10"/>
<path d="M172.6 298.14L255.78 383.07" stroke="black" stroke-width="0.5" stroke-miterlimit="10" stroke-dasharray="12 12"/>
<path d="M490.62 186.87L564.96 261.2" stroke="black" stroke-width="0.5" stroke-miterlimit="10" stroke-dasharray="12 12"/>
<path d="M354.676 143.42C356.224 143.42 357.472 142.22 357.472 140.732C357.472 139.616 356.776 138.656 355.768 138.248C355.432 138.104 355.06 138.032 354.676 138.032V136.232H357.388V135.092H353.368V139.208L353.992 139.46C354.184 139.352 354.412 139.292 354.676 139.292C355.504 139.292 356.116 139.928 356.116 140.732C356.116 141.524 355.504 142.16 354.676 142.16C353.848 142.16 353.236 141.524 353.236 140.732H351.88C351.88 142.22 353.128 143.42 354.676 143.42ZM361.689 143.42C363.753 143.456 364.713 141.488 364.677 139.16C364.713 136.832 363.753 134.936 361.689 134.9C359.625 134.936 358.641 136.832 358.677 139.16C358.641 141.488 359.625 143.456 361.689 143.42ZM361.689 142.184C360.273 142.184 360.021 140.456 360.021 139.16C360.021 137.876 360.273 136.124 361.689 136.124C363.105 136.124 363.333 137.876 363.333 139.16C363.333 140.456 363.105 142.184 361.689 142.184Z" fill="black"/>
<path d="M136.066 291.27C137.614 291.27 138.862 290.07 138.862 288.582C138.862 287.466 138.166 286.506 137.158 286.098H137.146L138.226 282.942H133.594V284.082H136.534L135.49 287.25C135.67 287.178 135.862 287.142 136.066 287.142C136.894 287.142 137.506 287.778 137.506 288.582C137.506 289.374 136.894 290.01 136.066 290.01C135.238 290.01 134.626 289.374 134.626 288.582H133.27C133.27 290.07 134.518 291.27 136.066 291.27Z" fill="black"/>
</svg>
