<svg width="737" height="601" viewBox="0 0 737 601" fill="none" xmlns="http://www.w3.org/2000/svg">
<g clip-path="url(#clip0)">
<path d="M708.73 -0.443115H27.7402C12.4197 -0.443115 0 11.9799 0 27.3045V572.939C0 588.264 12.4197 600.687 27.7402 600.687H708.73C724.051 600.687 736.47 588.264 736.47 572.939V27.3045C736.47 11.9799 724.051 -0.443115 708.73 -0.443115Z" fill="#EAEAEA"/>
<path d="M303.197 362.61C303.132 360.317 302.173 358.141 300.526 356.545C298.878 354.95 296.672 354.062 294.379 354.071L115.413 353.725C112.765 353.731 110.228 354.785 108.355 356.656C106.482 358.528 105.426 361.065 105.417 363.713V467.785V537.333C105.42 538.036 105.701 538.71 106.199 539.206C106.698 539.702 107.372 539.981 108.075 539.981H114.127C114.818 539.964 115.475 539.678 115.957 539.183C116.44 538.688 116.71 538.024 116.71 537.333V479.524C116.715 478.693 116.955 477.881 117.4 477.18C117.845 476.478 118.478 475.916 119.228 475.557L125.495 472.228L125.56 488.442C125.56 488.984 125.775 489.504 126.158 489.887C126.541 490.27 127.061 490.485 127.603 490.485H134.184C134.725 490.485 135.245 490.27 135.628 489.887C136.011 489.504 136.226 488.984 136.226 488.442V471.039H272.387V488.334C272.387 488.876 272.603 489.395 272.986 489.779C273.369 490.162 273.888 490.377 274.43 490.377H281.011C281.28 490.378 281.547 490.327 281.796 490.225C282.045 490.123 282.271 489.972 282.462 489.782C282.653 489.593 282.804 489.367 282.908 489.118C283.011 488.87 283.064 488.603 283.064 488.334V472.228L289.332 475.568C290.072 475.931 290.696 476.494 291.134 477.193C291.571 477.892 291.804 478.7 291.807 479.524V537.333C291.807 538.035 292.086 538.709 292.582 539.205C293.079 539.702 293.752 539.981 294.454 539.981H300.506C301.209 539.981 301.884 539.702 302.382 539.206C302.88 538.71 303.161 538.036 303.164 537.333V471.082L303.197 362.61ZM301.122 537.333C301.122 537.41 301.106 537.487 301.076 537.559C301.046 537.63 301.002 537.695 300.947 537.749C300.892 537.804 300.826 537.846 300.754 537.875C300.682 537.904 300.605 537.918 300.527 537.916H294.476C294.321 537.916 294.173 537.855 294.063 537.746C293.954 537.636 293.892 537.488 293.892 537.333V479.524C293.891 478.317 293.552 477.133 292.914 476.108C292.277 475.082 291.365 474.255 290.283 473.72L285.312 471.082H299.566C299.978 471.082 300.374 471.246 300.666 471.538C300.958 471.83 301.122 472.226 301.122 472.639V537.333ZM109.523 363.713C109.526 362.161 110.145 360.674 111.243 359.577C112.341 358.481 113.829 357.865 115.381 357.865V357.865L294.357 358.2C295.578 358.188 296.755 358.658 297.633 359.508C298.511 360.358 299.019 361.519 299.047 362.74V466.964H109.523V363.713ZM114.678 537.333C114.678 537.488 114.617 537.636 114.507 537.746C114.398 537.855 114.249 537.916 114.095 537.916H108.065C107.91 537.916 107.761 537.855 107.652 537.746C107.543 537.636 107.481 537.488 107.481 537.333V472.639C107.481 472.433 107.522 472.23 107.601 472.041C107.679 471.851 107.795 471.679 107.941 471.534C108.086 471.39 108.259 471.275 108.449 471.198C108.639 471.12 108.843 471.081 109.048 471.082H123.291L118.363 473.709C117.271 474.239 116.35 475.065 115.704 476.093C115.058 477.121 114.714 478.31 114.711 479.524L114.678 537.333ZM134.875 488.485C134.875 488.572 134.858 488.658 134.825 488.738C134.792 488.818 134.744 488.89 134.682 488.952C134.621 489.013 134.548 489.061 134.468 489.094C134.388 489.128 134.303 489.145 134.216 489.145H127.635C127.548 489.146 127.461 489.13 127.379 489.098C127.298 489.065 127.224 489.017 127.162 488.955C127.1 488.894 127.05 488.821 127.016 488.74C126.982 488.659 126.965 488.573 126.965 488.485V471.082H134.875V488.485ZM281.033 489.004H274.484C274.396 489.004 274.31 488.987 274.229 488.953C274.148 488.919 274.075 488.87 274.014 488.807C273.953 488.745 273.904 488.671 273.872 488.59C273.839 488.508 273.823 488.421 273.825 488.334V471.039H280.968L281.195 471.158L281.757 471.461V488.291C281.763 488.387 281.749 488.484 281.715 488.574C281.68 488.664 281.627 488.746 281.558 488.814C281.49 488.881 281.407 488.934 281.316 488.966C281.226 488.999 281.129 489.012 281.033 489.004V489.004Z" fill="#2D2D2D"/>
<path d="M607.906 65.0075C607.134 62.8294 605.697 60.949 603.799 59.632C601.901 58.315 599.637 57.628 597.327 57.6679H116.71C113.916 57.6716 111.201 58.5946 108.983 60.2946V60.2946C107.665 61.2921 106.594 62.5807 105.856 64.0601C105.117 65.5395 104.73 67.1696 104.725 68.8232L104.606 241.924C104.605 242.283 104.674 242.639 104.81 242.971C104.947 243.304 105.147 243.606 105.4 243.861C105.652 244.116 105.953 244.319 106.284 244.457C106.615 244.596 106.971 244.668 107.33 244.67H113.381C114.106 244.67 114.802 244.382 115.315 243.869C115.827 243.356 116.115 242.66 116.115 241.935V184.343C116.125 183.536 116.359 182.749 116.793 182.069C117.226 181.389 117.841 180.843 118.568 180.495L127.635 175.49C128.397 175.062 129.257 174.838 130.131 174.841L172.439 174.776C172.573 174.776 172.702 174.83 172.798 174.925C172.893 175.021 172.946 175.15 172.946 175.284V202.74C172.946 203.446 173.226 204.124 173.724 204.624C174.223 205.125 174.899 205.407 175.605 205.41H181.808C182.514 205.407 183.19 205.125 183.688 204.624C184.186 204.124 184.466 203.446 184.466 202.74V175.284C184.466 175.15 184.52 175.021 184.615 174.925C184.71 174.83 184.839 174.776 184.974 174.776H527.268C527.433 174.776 527.595 174.809 527.746 174.872C527.898 174.935 528.035 175.028 528.151 175.144C528.267 175.261 528.358 175.399 528.42 175.551C528.481 175.703 528.513 175.866 528.511 176.03V202.74C528.511 203.448 528.792 204.127 529.293 204.628C529.794 205.129 530.472 205.41 531.18 205.41H537.372C538.075 205.41 538.748 205.131 539.245 204.634C539.741 204.138 540.02 203.464 540.02 202.762V176.03C540.024 175.699 540.155 175.381 540.387 175.144C540.503 175.027 540.642 174.934 540.794 174.871C540.946 174.808 541.109 174.776 541.274 174.776V174.776L582.695 174.841C583.374 174.838 584.042 175.005 584.64 175.328L594.452 180.516C595.166 180.871 595.767 181.416 596.191 182.091C596.614 182.766 596.843 183.546 596.851 184.343V241.913C596.854 242.642 597.146 243.341 597.662 243.855C598.179 244.37 598.878 244.659 599.607 244.659H605.637C605.999 244.662 606.358 244.593 606.694 244.456C607.029 244.319 607.335 244.118 607.592 243.862C607.849 243.607 608.053 243.304 608.192 242.969C608.332 242.634 608.403 242.276 608.403 241.913V67.5044C608.358 66.6526 608.19 65.8117 607.906 65.0075V65.0075ZM117.509 178.506C116.407 179.042 115.477 179.876 114.824 180.913C114.171 181.95 113.821 183.149 113.814 184.375V241.913C113.811 242.037 113.761 242.155 113.675 242.243C113.589 242.331 113.472 242.383 113.349 242.389H107.297C107.176 242.381 107.062 242.328 106.978 242.239C106.894 242.151 106.846 242.035 106.843 241.913V151.417C106.841 151.254 106.87 151.091 106.931 150.939C106.992 150.787 107.082 150.649 107.196 150.532C107.311 150.415 107.448 150.323 107.599 150.259C107.75 150.196 107.912 150.164 108.075 150.164H112.592C112.755 150.164 112.916 150.196 113.066 150.258C113.217 150.321 113.353 150.413 113.467 150.528C113.582 150.644 113.672 150.781 113.734 150.932C113.795 151.082 113.826 151.244 113.824 151.407L113.997 172.442C114.009 173.072 114.266 173.672 114.714 174.114C115.163 174.557 115.766 174.806 116.396 174.809H124.436L117.509 178.506ZM182.164 202.773C182.164 202.877 182.124 202.977 182.051 203.052C181.978 203.126 181.88 203.17 181.775 203.173H175.583C175.478 203.17 175.378 203.127 175.304 203.052C175.229 202.978 175.186 202.878 175.183 202.773V175.317C175.183 175.182 175.237 175.053 175.332 174.958C175.427 174.862 175.557 174.809 175.691 174.809H181.667C181.8 174.812 181.927 174.866 182.019 174.961C182.112 175.056 182.164 175.184 182.164 175.317V202.773ZM537.751 202.773C537.752 202.826 537.743 202.878 537.723 202.927C537.704 202.977 537.674 203.021 537.637 203.059C537.599 203.096 537.555 203.126 537.506 203.145C537.456 203.165 537.404 203.174 537.351 203.173H531.17C531.068 203.173 530.971 203.133 530.898 203.062C530.826 202.992 530.783 202.896 530.781 202.794V176.03C530.781 175.866 530.813 175.703 530.876 175.55C530.939 175.398 531.031 175.26 531.148 175.144C531.264 175.027 531.402 174.935 531.554 174.872C531.706 174.809 531.869 174.776 532.034 174.776H536.508C536.672 174.776 536.835 174.809 536.986 174.872C537.138 174.935 537.275 175.028 537.391 175.144C537.506 175.261 537.597 175.399 537.659 175.551C537.721 175.703 537.752 175.866 537.751 176.03V202.773ZM119.681 170.993C119.181 170.99 118.701 170.79 118.347 170.436C117.993 170.082 117.793 169.602 117.79 169.102L117.65 149.861C117.644 148.933 117.272 148.045 116.614 147.391C115.956 146.737 115.065 146.369 114.138 146.369H112.592C111.924 146.369 111.282 146.104 110.808 145.632C110.334 145.16 110.067 144.52 110.064 143.851V67.3098C110.133 65.9144 110.741 64.6002 111.758 63.6429C112.776 62.6856 114.124 62.1597 115.521 62.1754V62.1754L599.412 62.5754C600.446 62.5751 601.44 62.98 602.179 63.7034C602.918 64.4267 603.345 65.4109 603.367 66.4451V143.678C603.37 144.033 603.3 144.384 603.162 144.711C603.025 145.038 602.823 145.334 602.568 145.58C602.059 146.075 601.376 146.351 600.666 146.348H600.363C599.732 146.3 599.098 146.383 598.5 146.592C597.903 146.801 597.355 147.13 596.89 147.561C596.426 147.991 596.055 148.512 595.801 149.092C595.547 149.672 595.415 150.298 595.414 150.931L595.165 168.323C595.162 169.027 594.881 169.7 594.383 170.197C593.885 170.693 593.21 170.972 592.507 170.972L119.681 170.993ZM606.112 241.913C606.112 242.039 606.062 242.16 605.973 242.25C605.884 242.339 605.763 242.389 605.637 242.389H599.607C599.48 242.389 599.358 242.339 599.267 242.25C599.176 242.161 599.123 242.04 599.12 241.913V184.343C599.124 183.124 598.784 181.929 598.14 180.895C597.496 179.861 596.574 179.029 595.479 178.495L588.509 174.766H596.559C597.189 174.763 597.793 174.514 598.241 174.071C598.69 173.629 598.947 173.028 598.958 172.398L599.11 151.363C599.115 151.034 599.25 150.719 599.484 150.487C599.718 150.255 600.034 150.123 600.363 150.12H604.859C605.191 150.12 605.51 150.252 605.745 150.488C605.98 150.723 606.112 151.042 606.112 151.374V241.913Z" fill="black"/>
<path d="M105.136 255.89H107.838" stroke="black" stroke-width="0.75" stroke-miterlimit="10"/>
<path d="M113.187 255.89H602.86" stroke="black" stroke-width="0.75" stroke-miterlimit="10" stroke-dasharray="4.95 4.95"/>
<path d="M605.529 255.89H608.231" stroke="black" stroke-width="0.75" stroke-miterlimit="10"/>
<path d="M104.866 551.958H107.568" stroke="black" stroke-width="0.75" stroke-miterlimit="10"/>
<path d="M113.09 551.958H297.945" stroke="black" stroke-width="0.75" stroke-miterlimit="10" stroke-dasharray="5.11 5.11"/>
<path d="M300.701 551.958H303.402" stroke="black" stroke-width="0.75" stroke-miterlimit="10"/>
<path d="M353.793 279.469C355.899 279.469 357.575 277.921 357.575 276.021C357.575 274.888 356.969 273.883 356.027 273.26C356.586 272.718 356.921 271.968 356.921 271.138C356.921 269.478 355.532 268.121 353.793 268.121C352.053 268.121 350.664 269.478 350.664 271.138C350.664 271.968 351 272.718 351.558 273.26C350.617 273.883 350.01 274.888 350.01 276.021C350.01 277.921 351.686 279.469 353.793 279.469ZM353.793 272.59C352.947 272.59 352.308 271.952 352.308 271.138C352.308 270.308 352.947 269.669 353.793 269.669C354.638 269.669 355.277 270.308 355.277 271.138C355.277 271.952 354.638 272.59 353.793 272.59ZM353.793 277.953C352.627 277.953 351.766 277.107 351.766 276.037C351.766 274.984 352.627 274.154 353.793 274.154C354.958 274.154 355.819 274.984 355.819 276.037C355.819 277.107 354.958 277.953 353.793 277.953ZM363.12 279.485C365.865 279.533 367.142 276.915 367.094 273.819C367.142 270.723 365.865 268.201 363.12 268.153C360.375 268.201 359.066 270.723 359.114 273.819C359.066 276.915 360.375 279.533 363.12 279.485ZM363.12 277.841C361.236 277.841 360.901 275.543 360.901 273.819C360.901 272.111 361.236 269.781 363.12 269.781C365.003 269.781 365.306 272.111 365.306 273.819C365.306 275.543 365.003 277.841 363.12 277.841Z" fill="black"/>
<path d="M201.301 575.298H203.168V570.19H198.843L201.987 564.477H200.12L196.082 571.691H201.301V575.298ZM209.252 575.553C211.997 575.601 213.274 572.983 213.226 569.887C213.274 566.791 211.997 564.269 209.252 564.221C206.507 564.269 205.198 566.791 205.246 569.887C205.198 572.983 206.507 575.601 209.252 575.553ZM209.252 573.909C207.369 573.909 207.034 571.611 207.034 569.887C207.034 568.179 207.369 565.849 209.252 565.849C211.135 565.849 211.439 568.179 211.439 569.887C211.439 571.611 211.135 573.909 209.252 573.909Z" fill="black"/>
<path d="M85.8574 58.6731V245.707" stroke="black" stroke-width="0.75" stroke-miterlimit="10" stroke-dasharray="5 5"/>
<path d="M63.0722 156.68C65.131 156.68 66.7909 155.084 66.7909 153.105C66.7909 151.621 65.8652 150.344 64.5246 149.801H64.5086L65.945 145.604H59.7844V147.12H63.6946L62.3061 151.333C62.5455 151.237 62.8009 151.19 63.0722 151.19C64.1734 151.19 64.9874 152.035 64.9874 153.105C64.9874 154.158 64.1734 155.004 63.0722 155.004C61.971 155.004 61.157 154.158 61.157 153.105H59.3535C59.3535 155.084 61.0134 156.68 63.0722 156.68Z" fill="black"/>
</g>
<defs>
<clipPath id="clip0">
<rect width="737" height="601" fill="white"/>
</clipPath>
</defs>
</svg>
