<svg width="740" height="562" viewBox="0 0 740 562" fill="none" xmlns="http://www.w3.org/2000/svg">
<path d="M713.99 0.100098H25.9801C11.8029 0.100098 0.310059 11.5929 0.310059 25.7701V535.97C0.310059 550.147 11.8029 561.64 25.9801 561.64H713.99C728.167 561.64 739.66 550.147 739.66 535.97V25.7701C739.66 11.5929 728.167 0.100098 713.99 0.100098Z" fill="#EAEAEA"/>
<path d="M431.63 282.39H505.55H682.71" stroke="black" stroke-width="0.25" stroke-miterlimit="10" stroke-dasharray="3 3"/>
<path d="M555.299 297.465C556.847 297.492 557.567 296.016 557.54 294.27C557.567 292.524 556.847 291.102 555.299 291.075C553.751 291.102 553.013 292.524 553.04 294.27C553.013 296.016 553.751 297.492 555.299 297.465ZM555.299 296.538C554.237 296.538 554.048 295.242 554.048 294.27C554.048 293.307 554.237 291.993 555.299 291.993C556.361 291.993 556.532 293.307 556.532 294.27C556.532 295.242 556.361 296.538 555.299 296.538ZM560.695 297.465C562.243 297.492 562.963 296.016 562.936 294.27C562.963 292.524 562.243 291.102 560.695 291.075C559.147 291.102 558.409 292.524 558.436 294.27C558.409 296.016 559.147 297.492 560.695 297.465ZM560.695 296.538C559.633 296.538 559.444 295.242 559.444 294.27C559.444 293.307 559.633 291.993 560.695 291.993C561.757 291.993 561.928 293.307 561.928 294.27C561.928 295.242 561.757 296.538 560.695 296.538ZM566.092 297.465C567.64 297.492 568.36 296.016 568.333 294.27C568.36 292.524 567.64 291.102 566.092 291.075C564.544 291.102 563.806 292.524 563.833 294.27C563.806 296.016 564.544 297.492 566.092 297.465ZM566.092 296.538C565.03 296.538 564.841 295.242 564.841 294.27C564.841 293.307 565.03 291.993 566.092 291.993C567.154 291.993 567.325 293.307 567.325 294.27C567.325 295.242 567.154 296.538 566.092 296.538Z" fill="#191919"/>
<path d="M402.36 115.53V159.84V266.04" stroke="black" stroke-width="0.25" stroke-miterlimit="10" stroke-dasharray="3 3"/>
<path d="M378.58 197.52H382.279V196.656H381.001V191.409H378.58V192.264H380.02V196.656H378.58V197.52ZM385.168 197.655C386.716 197.682 387.436 196.206 387.409 194.46C387.436 192.714 386.716 191.292 385.168 191.265C383.62 191.292 382.882 192.714 382.909 194.46C382.882 196.206 383.62 197.682 385.168 197.655ZM385.168 196.728C384.106 196.728 383.917 195.432 383.917 194.46C383.917 193.497 384.106 192.183 385.168 192.183C386.23 192.183 386.401 193.497 386.401 194.46C386.401 195.432 386.23 196.728 385.168 196.728ZM390.564 197.655C392.112 197.682 392.832 196.206 392.805 194.46C392.832 192.714 392.112 191.292 390.564 191.265C389.016 191.292 388.278 192.714 388.305 194.46C388.278 196.206 389.016 197.682 390.564 197.655ZM390.564 196.728C389.502 196.728 389.313 195.432 389.313 194.46C389.313 193.497 389.502 192.183 390.564 192.183C391.626 192.183 391.797 193.497 391.797 194.46C391.797 195.432 391.626 196.728 390.564 196.728Z" fill="#191919"/>
<path d="M682.39 197.83H466.55C467.263 197.742 467.949 197.5 468.558 197.12C469.168 196.74 469.687 196.231 470.08 195.63C470.531 194.929 470.799 194.126 470.86 193.295C470.921 192.463 470.773 191.63 470.43 190.87L436.86 116C436.091 114.339 434.823 112.958 433.234 112.049C431.645 111.14 429.813 110.747 427.991 110.925C426.169 111.103 424.447 111.843 423.064 113.042C421.68 114.242 420.704 115.841 420.27 117.62C419.793 119.67 420.041 121.822 420.97 123.71L437.07 158.34C435.993 157.743 434.782 157.426 433.55 157.42H431.88C429.939 157.42 428.077 158.191 426.704 159.564C425.332 160.937 424.56 162.799 424.56 164.74V235C424.56 235.961 424.75 236.912 425.118 237.8C425.486 238.687 426.025 239.494 426.705 240.173C427.385 240.852 428.192 241.39 429.08 241.757C429.968 242.123 430.92 242.311 431.88 242.31H432.15L433.81 262.42C433.86 263.001 434.127 263.542 434.556 263.936C434.986 264.331 435.547 264.55 436.13 264.55H438.63C439.212 264.547 439.771 264.327 440.198 263.933C440.626 263.539 440.891 262.999 440.94 262.42L442.5 243.42C442.528 243.111 442.669 242.824 442.896 242.613C443.123 242.403 443.421 242.284 443.73 242.28H672.5C672.811 242.282 673.11 242.4 673.337 242.611C673.565 242.822 673.705 243.111 673.73 243.42L675.34 262.91C675.386 263.491 675.649 264.033 676.078 264.428C676.506 264.823 677.068 265.042 677.65 265.04H680.15C680.733 265.042 681.295 264.823 681.723 264.428C682.152 264.033 682.415 263.491 682.46 262.91L684.19 242C685.754 241.607 687.142 240.706 688.139 239.44C689.136 238.173 689.685 236.612 689.7 235V205.15C689.702 204.189 689.514 203.238 689.147 202.35C688.78 201.462 688.242 200.655 687.563 199.975C686.884 199.295 686.078 198.756 685.19 198.388C684.303 198.02 683.351 197.83 682.39 197.83ZM422.07 122.83C421.286 121.04 421.233 119.013 421.923 117.184C422.614 115.356 423.993 113.87 425.765 113.045C427.538 112.22 429.562 112.122 431.406 112.772C433.25 113.421 434.766 114.767 435.63 116.52L469.2 191.42C469.449 191.974 469.555 192.58 469.509 193.185C469.463 193.79 469.267 194.374 468.938 194.884C468.609 195.393 468.158 195.813 467.626 196.104C467.094 196.395 466.497 196.548 465.89 196.55H460.17C459.038 196.555 457.927 196.236 456.97 195.63C456.013 195.024 455.25 194.156 454.77 193.13L441.94 165.54L440.24 161.7C440.086 161.352 439.902 161.017 439.69 160.7L422.07 122.83ZM439.69 261C439.652 261.588 439.391 262.139 438.961 262.541C438.531 262.944 437.964 263.168 437.375 263.168C436.786 263.168 436.22 262.944 435.79 262.541C435.36 262.139 435.099 261.588 435.06 261L433.6 243.26C433.592 243.174 433.602 243.087 433.629 243.004C433.657 242.922 433.701 242.847 433.759 242.782C433.818 242.718 433.889 242.667 433.968 242.632C434.048 242.598 434.134 242.58 434.22 242.58H440.53C440.617 242.58 440.703 242.598 440.782 242.632C440.862 242.667 440.933 242.718 440.991 242.782C441.05 242.847 441.094 242.922 441.122 243.004C441.149 243.087 441.159 243.174 441.15 243.26L439.69 261ZM681.21 261.53C681.157 262.106 680.89 262.641 680.463 263.03C680.036 263.419 679.479 263.635 678.9 263.635C678.322 263.635 677.765 263.419 677.338 263.03C676.911 262.641 676.644 262.106 676.59 261.53L675.13 243.83C675.122 243.739 675.133 243.646 675.162 243.559C675.192 243.472 675.239 243.392 675.301 243.324C675.363 243.256 675.439 243.202 675.523 243.165C675.607 243.129 675.698 243.11 675.79 243.11H682C682.092 243.111 682.182 243.131 682.266 243.168C682.349 243.206 682.424 243.26 682.486 243.327C682.548 243.395 682.595 243.474 682.625 243.561C682.655 243.647 682.667 243.739 682.66 243.83L681.21 261.53ZM686.09 235C686.09 235.981 685.701 236.923 685.007 237.616C684.313 238.31 683.372 238.7 682.39 238.7H431.88C430.899 238.7 429.958 238.31 429.264 237.616C428.57 236.923 428.18 235.981 428.18 235V164.71C428.18 163.728 428.57 162.786 429.264 162.09C429.957 161.395 430.898 161.003 431.88 161H433.55C434.269 161.001 434.972 161.21 435.573 161.602C436.175 161.995 436.65 162.553 436.94 163.21L451 195C451.859 196.936 453.26 198.58 455.036 199.734C456.811 200.888 458.883 201.502 461 201.5H682.39C683.372 201.5 684.313 201.89 685.007 202.584C685.701 203.278 686.09 204.219 686.09 205.2V235Z" fill="#3D3D3D"/>
<path d="M680.57 433.54H465.25C465.921 433.422 466.56 433.165 467.127 432.786C467.693 432.408 468.174 431.915 468.54 431.34C468.992 430.642 469.263 429.842 469.327 429.012C469.392 428.183 469.249 427.35 468.91 426.59L448.25 380.49C448.18 380.35 448.1 380.21 448.02 380.08L446.94 377.68L446.53 377.86L447.07 379.06C446.422 378.581 445.637 378.322 444.83 378.32L409.07 378.46C406.983 378.46 404.981 379.289 403.505 380.765C402.029 382.241 401.2 384.243 401.2 386.33C401.2 388.417 402.029 390.419 403.505 391.895C404.981 393.371 406.983 394.2 409.07 394.2H423V475.35C423.001 475.896 423.172 476.428 423.489 476.873C423.807 477.317 424.254 477.652 424.77 477.83L426.66 500.72H433.43L435.35 478H672.11L674 500.74H680.77L682.64 478H683.55C684.778 478 685.956 477.512 686.824 476.644C687.692 475.776 688.18 474.598 688.18 473.37V441.17C688.183 440.169 687.988 439.177 687.607 438.252C687.225 437.326 686.665 436.485 685.958 435.776C685.251 435.067 684.412 434.505 683.487 434.121C682.562 433.738 681.571 433.54 680.57 433.54ZM679.51 499.38H675.24L673.54 478.84H681.21L679.51 499.38ZM402.58 386.38C402.58 384.657 403.263 383.004 404.48 381.784C405.696 380.564 407.347 379.875 409.07 379.87L429.84 379.78L431.25 382.78L431.66 382.59L430.34 379.75L443.93 379.7C444.656 379.696 445.367 379.903 445.978 380.295C446.588 380.687 447.072 381.248 447.37 381.91L467.67 427.16C467.917 427.716 468.021 428.324 467.974 428.929C467.927 429.535 467.73 430.12 467.4 430.63C467.079 431.137 466.637 431.555 466.113 431.847C465.589 432.139 465 432.295 464.4 432.3H457.13C456.457 432.3 455.797 432.108 455.23 431.744C454.663 431.381 454.211 430.862 453.93 430.25L436.93 393.37L436.81 393.09L436.7 392.84H436.47L436.26 392.39L435.85 392.58L435.97 392.84H409.1C408.244 392.841 407.397 392.674 406.606 392.348C405.815 392.021 405.096 391.542 404.49 390.937C403.885 390.332 403.404 389.614 403.077 388.824C402.749 388.033 402.58 387.186 402.58 386.33V386.38ZM432.22 499.38H428L426.3 478.83H433.97L432.22 499.38ZM684.56 469.87C684.56 471.066 684.085 472.213 683.239 473.059C682.393 473.905 681.246 474.38 680.05 474.38H430.3C429.82 474.382 429.345 474.288 428.902 474.105C428.458 473.922 428.056 473.653 427.716 473.314C427.377 472.975 427.108 472.572 426.925 472.129C426.742 471.685 426.649 471.21 426.65 470.73V398.9C426.65 398.319 426.881 397.762 427.292 397.352C427.702 396.941 428.259 396.71 428.84 396.71H434.43L451.43 435.01L452.38 437.16H677C679.016 437.16 680.949 437.961 682.374 439.386C683.799 440.811 684.6 442.745 684.6 444.76L684.56 469.87Z" fill="#3D3D3D"/>
<path d="M445.47 374.38L443.99 371.08L443.57 371.27L445.05 374.57L445.47 374.38Z" fill="#3D3D3D"/>
<path d="M420.987 359.605L420.579 359.795L422.101 363.068L422.509 362.879L420.987 359.605Z" fill="#3D3D3D"/>
<path d="M427.086 372.717L426.678 372.907L428.202 376.179L428.61 375.989L427.086 372.717Z" fill="#3D3D3D"/>
<path d="M424.035 366.187L423.627 366.377L425.154 369.659L425.562 369.469L424.035 366.187Z" fill="#3D3D3D"/>
<path d="M420.11 352.65C419.724 353.624 419.527 354.662 419.53 355.71C419.53 355.9 419.53 356.1 419.53 356.29H419.98C419.98 356.11 419.98 355.92 419.98 355.74C419.976 354.75 420.163 353.769 420.53 352.85L420.11 352.65Z" fill="#3D3D3D"/>
<path d="M429 347.39L428.94 347.84C430.105 347.995 431.222 348.405 432.21 349.04L432.45 348.67C431.411 347.989 430.232 347.552 429 347.39Z" fill="#3D3D3D"/>
<path d="M424.62 348C423.713 348.385 422.883 348.93 422.17 349.61L422.47 349.93C423.151 349.292 423.94 348.781 424.8 348.42C425.02 348.32 425.25 348.24 425.48 348.16L425.34 347.73C425.113 347.803 424.873 347.893 424.62 348Z" fill="#3D3D3D"/>
<path d="M433.186 385.826L432.778 386.016L434.3 389.289L434.708 389.099L433.186 385.826Z" fill="#3D3D3D"/>
<path d="M441.03 364.49L440.62 364.67L442.1 367.97L442.51 367.79L441.03 364.49Z" fill="#3D3D3D"/>
<path d="M436.6 354.59L435.51 352.17C435.372 351.871 435.215 351.58 435.04 351.3L434.66 351.53C434.823 351.795 434.97 352.069 435.1 352.35L436.18 354.77L436.6 354.59Z" fill="#3D3D3D"/>
<path d="M438.07 357.89L437.66 358.07L439.14 361.37L439.55 361.19L438.07 357.89Z" fill="#3D3D3D"/>
<path d="M329.61 432.07H114.29C114.96 431.951 115.598 431.695 116.164 431.318C116.73 430.942 117.212 430.452 117.58 429.88C118.034 429.18 118.305 428.378 118.37 427.547C118.435 426.716 118.29 425.881 117.95 425.12L97.2902 379C97.0118 378.439 96.608 377.95 96.1102 377.57C95.4616 377.091 94.6767 376.831 93.8702 376.83L58.3802 377C56.3493 376.971 54.3834 377.715 52.881 379.082C51.3787 380.449 50.4524 382.336 50.2902 384.36C50.2189 385.434 50.3692 386.512 50.7315 387.526C51.0939 388.539 51.6606 389.468 52.3967 390.254C53.1327 391.039 54.0223 391.665 55.0102 392.093C55.9982 392.521 57.0636 392.741 58.1402 392.74H72.0802V473.89C72.0788 474.316 72.182 474.736 72.3808 475.112C72.5795 475.489 72.8678 475.811 73.2202 476.05C73.412 476.17 73.5738 476.333 73.6934 476.525C73.8129 476.718 73.8871 476.935 73.9102 477.16L75.6102 497.71C75.6452 498.135 75.8384 498.53 76.1513 498.819C76.4643 499.108 76.8743 499.269 77.3002 499.27H81.0002C81.4261 499.269 81.8361 499.108 82.149 498.819C82.462 498.53 82.6551 498.135 82.6902 497.71L84.3302 477.84C84.36 477.483 84.5221 477.149 84.7847 476.905C85.0474 476.661 85.3916 476.524 85.7502 476.52H320.75C320.871 476.52 320.987 476.565 321.076 476.646C321.165 476.728 321.22 476.84 321.23 476.96L322.96 497.96C322.99 498.313 323.152 498.641 323.413 498.88C323.675 499.119 324.016 499.251 324.37 499.25H328.54C328.894 499.251 329.236 499.119 329.497 498.88C329.758 498.641 329.92 498.313 329.95 497.96L331.68 476.96C331.69 476.84 331.745 476.728 331.834 476.646C331.923 476.565 332.04 476.52 332.16 476.52C333.513 476.52 334.81 475.983 335.766 475.026C336.723 474.07 337.26 472.773 337.26 471.42V439.68C337.26 438.677 337.062 437.685 336.677 436.759C336.292 435.833 335.728 434.992 335.017 434.285C334.306 433.578 333.463 433.018 332.535 432.638C331.607 432.258 330.613 432.065 329.61 432.07ZM58.1402 391.37C57.2849 391.371 56.4378 391.204 55.6473 390.877C54.8569 390.551 54.1387 390.071 53.534 389.466C52.9292 388.862 52.4497 388.143 52.123 387.353C51.7963 386.562 51.6288 385.715 51.6302 384.86C51.6275 383.138 52.3084 381.485 53.5234 380.264C54.7383 379.044 56.388 378.355 58.1102 378.35L78.8802 378.26H79.3802L92.9702 378.21C93.697 378.207 94.4091 378.415 95.0199 378.809C95.6306 379.203 96.1136 379.766 96.4102 380.43L116.71 425.67C116.959 426.225 117.065 426.833 117.018 427.44C116.971 428.046 116.772 428.631 116.44 429.14C116.119 429.647 115.677 430.065 115.153 430.357C114.629 430.649 114.04 430.804 113.44 430.81H106.17C105.502 430.815 104.846 430.629 104.28 430.275C103.713 429.921 103.259 429.413 102.97 428.81L85.7402 391.4L58.1402 391.37ZM79.7002 497.9H78.5502C78.1259 497.899 77.7172 497.74 77.4045 497.453C77.0918 497.166 76.8976 496.773 76.8602 496.35L75.4202 478.9C75.4036 478.703 75.428 478.505 75.4917 478.318C75.5555 478.131 75.6573 477.96 75.7907 477.814C75.9241 477.669 76.0862 477.552 76.2669 477.472C76.4475 477.392 76.6427 477.351 76.8402 477.35H81.4102C81.6077 477.351 81.8029 477.392 81.9835 477.472C82.1641 477.552 82.3262 477.669 82.4596 477.814C82.593 477.96 82.6948 478.131 82.7586 478.318C82.8224 478.505 82.8467 478.703 82.8302 478.9L81.3902 496.35C81.3527 496.773 81.1586 497.166 80.8459 497.453C80.5332 497.74 80.1245 497.899 79.7002 497.9ZM327.26 497.9H325.57C325.216 497.899 324.876 497.764 324.616 497.523C324.357 497.283 324.198 496.953 324.17 496.6L322.62 477.86C322.616 477.795 322.625 477.729 322.648 477.667C322.67 477.605 322.705 477.549 322.75 477.501C322.795 477.453 322.849 477.415 322.909 477.389C322.97 477.363 323.035 477.35 323.1 477.35H329.73C329.796 477.35 329.861 477.363 329.921 477.389C329.981 477.415 330.036 477.453 330.081 477.501C330.126 477.549 330.16 477.605 330.183 477.667C330.205 477.729 330.214 477.795 330.21 477.86L328.66 496.6C328.637 496.957 328.48 497.291 328.22 497.536C327.96 497.781 327.617 497.918 327.26 497.92V497.9ZM333.6 468.37C333.6 469.566 333.125 470.713 332.279 471.559C331.433 472.405 330.286 472.88 329.09 472.88H79.3402C78.8605 472.881 78.3852 472.788 77.9418 472.605C77.4984 472.422 77.0955 472.153 76.7563 471.814C76.4171 471.475 76.1483 471.072 75.9653 470.628C75.7824 470.185 75.6889 469.71 75.6902 469.23V397.43C75.6902 396.849 75.9209 396.292 76.3316 395.882C76.7423 395.471 77.2993 395.24 77.8802 395.24H83.4702L100.47 433.54L101.42 435.69H326C328.016 435.69 329.949 436.491 331.374 437.916C332.799 439.341 333.6 441.274 333.6 443.29V468.37Z" fill="#3D3D3D"/>
<path d="M79.5002 264.74V258.94C79.5054 254.791 81.156 250.813 84.0898 247.88C87.0236 244.946 91.0011 243.295 95.1501 243.29H296.94C301.091 243.293 305.071 244.942 308.007 247.876C310.943 250.81 312.595 254.789 312.6 258.94V264.74H327.53V141.08C327.53 135.758 325.417 130.654 321.656 126.888C317.895 123.123 312.792 121.005 307.47 121H85.2202C79.9015 121.005 74.8023 123.12 71.0414 126.881C67.2806 130.642 65.1655 135.741 65.1602 141.06V264.74H79.5002ZM323.91 261.12H316.21V258.94C316.211 255.07 315.047 251.289 312.869 248.089C310.691 244.889 307.601 242.419 304 241H324L323.91 261.12ZM198.59 124.64H307.47C311.829 124.643 316.01 126.376 319.092 129.458C322.175 132.541 323.908 136.721 323.91 141.08V190.77H198.59V124.64ZM68.7701 141.08C68.7754 136.72 70.5106 132.54 73.5947 129.457C76.6788 126.375 80.8599 124.643 85.2202 124.64H196.78V190.77H68.7802L68.7701 141.08ZM68.7701 226.88H68.9702V226.63H68.7701V192.63H323.91V239.26H68.7701V226.88ZM68.7701 241.01H88.1402C84.5324 242.422 81.4334 244.887 79.2467 248.085C77.06 251.283 75.8869 255.066 75.8801 258.94V261.12H68.7701V241.01Z" fill="#3D3D3D"/>
<path d="M322.96 226.63H321.96V226.88H322.96V226.63Z" fill="#3D3D3D"/>
<path d="M204.43 226.63H202.44V226.88H204.43V226.63Z" fill="#3D3D3D"/>
<path d="M240.29 226.63H238.3V226.88H240.29V226.63Z" fill="#3D3D3D"/>
<path d="M248.25 226.63H246.26V226.88H248.25V226.63Z" fill="#3D3D3D"/>
<path d="M236.3 226.63H234.31V226.88H236.3V226.63Z" fill="#3D3D3D"/>
<path d="M264.19 226.63H262.2V226.88H264.19V226.63Z" fill="#3D3D3D"/>
<path d="M252.24 226.63H250.25V226.88H252.24V226.63Z" fill="#3D3D3D"/>
<path d="M256.22 226.63H254.23V226.88H256.22V226.63Z" fill="#3D3D3D"/>
<path d="M216.38 226.63H214.39V226.88H216.38V226.63Z" fill="#3D3D3D"/>
<path d="M232.32 226.63H230.33V226.88H232.32V226.63Z" fill="#3D3D3D"/>
<path d="M208.41 226.63H206.42V226.88H208.41V226.63Z" fill="#3D3D3D"/>
<path d="M212.4 226.63H210.41V226.88H212.4V226.63Z" fill="#3D3D3D"/>
<path d="M228.33 226.63H226.34V226.88H228.33V226.63Z" fill="#3D3D3D"/>
<path d="M220.37 226.63H218.38V226.88H220.37V226.63Z" fill="#3D3D3D"/>
<path d="M224.35 226.63H222.36V226.88H224.35V226.63Z" fill="#3D3D3D"/>
<path d="M244.27 226.63H242.28V226.88H244.27V226.63Z" fill="#3D3D3D"/>
<path d="M268.18 226.63H266.19V226.88H268.18V226.63Z" fill="#3D3D3D"/>
<path d="M304.03 226.63H302.04V226.88H304.03V226.63Z" fill="#3D3D3D"/>
<path d="M300.05 226.63H298.06V226.88H300.05V226.63Z" fill="#3D3D3D"/>
<path d="M315.98 226.63H313.99V226.88H315.98V226.63Z" fill="#3D3D3D"/>
<path d="M312 226.63H310.01V226.88H312V226.63Z" fill="#3D3D3D"/>
<path d="M319.97 226.63H317.98V226.88H319.97V226.63Z" fill="#3D3D3D"/>
<path d="M296.06 226.63H294.07V226.88H296.06V226.63Z" fill="#3D3D3D"/>
<path d="M308.02 226.63H306.03V226.88H308.02V226.63Z" fill="#3D3D3D"/>
<path d="M276.14 226.63H274.15V226.88H276.14V226.63Z" fill="#3D3D3D"/>
<path d="M272.16 226.63H270.17V226.88H272.16V226.63Z" fill="#3D3D3D"/>
<path d="M280.13 226.63H278.14V226.88H280.13V226.63Z" fill="#3D3D3D"/>
<path d="M288.1 226.63H286.11V226.88H288.1V226.63Z" fill="#3D3D3D"/>
<path d="M292.08 226.63H290.09V226.88H292.08V226.63Z" fill="#3D3D3D"/>
<path d="M284.11 226.63H282.12V226.88H284.11V226.63Z" fill="#3D3D3D"/>
<path d="M260.21 226.63H258.22V226.88H260.21V226.63Z" fill="#3D3D3D"/>
<path d="M108.81 226.63H106.82V226.88H108.81V226.63Z" fill="#3D3D3D"/>
<path d="M112.8 226.63H110.81V226.88H112.8V226.63Z" fill="#3D3D3D"/>
<path d="M104.83 226.63H102.84V226.88H104.83V226.63Z" fill="#3D3D3D"/>
<path d="M100.85 226.63H98.8604V226.88H100.85V226.63Z" fill="#3D3D3D"/>
<path d="M116.78 226.63H114.79V226.88H116.78V226.63Z" fill="#3D3D3D"/>
<path d="M128.73 226.63H126.74V226.88H128.73V226.63Z" fill="#3D3D3D"/>
<path d="M120.77 226.63H118.78V226.88H120.77V226.63Z" fill="#3D3D3D"/>
<path d="M124.75 226.63H122.76V226.88H124.75V226.63Z" fill="#3D3D3D"/>
<path d="M76.9402 226.63H74.9502V226.88H76.9402V226.63Z" fill="#3D3D3D"/>
<path d="M80.9202 226.63H78.9302V226.88H80.9202V226.63Z" fill="#3D3D3D"/>
<path d="M96.8601 226.63H94.8701V226.88H96.8601V226.63Z" fill="#3D3D3D"/>
<path d="M72.9602 226.63H70.9702V226.88H72.9602V226.63Z" fill="#3D3D3D"/>
<path d="M132.72 226.63H130.73V226.88H132.72V226.63Z" fill="#3D3D3D"/>
<path d="M92.8801 226.63H90.8901V226.88H92.8801V226.63Z" fill="#3D3D3D"/>
<path d="M200.45 226.63H198.46V226.88H200.45V226.63Z" fill="#3D3D3D"/>
<path d="M88.8904 226.63H86.9004V226.88H88.8904V226.63Z" fill="#3D3D3D"/>
<path d="M84.9099 226.63H82.9199V226.88H84.9099V226.63Z" fill="#3D3D3D"/>
<path d="M176.54 226.63H174.55V226.88H176.54V226.63Z" fill="#3D3D3D"/>
<path d="M180.53 226.63H178.54V226.88H180.53V226.63Z" fill="#3D3D3D"/>
<path d="M172.56 226.63H170.57V226.88H172.56V226.63Z" fill="#3D3D3D"/>
<path d="M168.57 226.63H166.58V226.88H168.57V226.63Z" fill="#3D3D3D"/>
<path d="M184.51 226.63H182.52V226.88H184.51V226.63Z" fill="#3D3D3D"/>
<path d="M196.46 226.63H194.47V226.88H196.46V226.63Z" fill="#3D3D3D"/>
<path d="M192.48 226.63H190.49V226.88H192.48V226.63Z" fill="#3D3D3D"/>
<path d="M136.7 226.63H134.71V226.88H136.7V226.63Z" fill="#3D3D3D"/>
<path d="M188.49 226.63H186.5V226.88H188.49V226.63Z" fill="#3D3D3D"/>
<path d="M148.65 226.63H146.66V226.88H148.65V226.63Z" fill="#3D3D3D"/>
<path d="M144.67 226.63H142.68V226.88H144.67V226.63Z" fill="#3D3D3D"/>
<path d="M140.69 226.63H138.7V226.88H140.69V226.63Z" fill="#3D3D3D"/>
<path d="M156.62 226.63H154.63V226.88H156.62V226.63Z" fill="#3D3D3D"/>
<path d="M152.64 226.63H150.65V226.88H152.64V226.63Z" fill="#3D3D3D"/>
<path d="M160.61 226.63H158.62V226.88H160.61V226.63Z" fill="#3D3D3D"/>
<path d="M164.59 226.63H162.6V226.88H164.59V226.63Z" fill="#3D3D3D"/>
<path d="M64.0703 112.17H142.31H329.84" stroke="black" stroke-width="0.25" stroke-miterlimit="10" stroke-dasharray="3 3"/>
<path d="M173.56 104.58H177.259V103.716H175.981V98.4691H173.56V99.3241H175V103.716H173.56V104.58ZM180.438 104.706C181.599 104.706 182.535 103.806 182.535 102.69C182.535 101.637 181.707 100.773 180.645 100.674L182.373 98.4691H181.167L178.917 101.295C178.557 101.664 178.341 102.15 178.341 102.69C178.341 103.806 179.277 104.706 180.438 104.706ZM180.438 103.761C179.817 103.761 179.358 103.284 179.358 102.69C179.358 102.087 179.817 101.61 180.438 101.61C181.059 101.61 181.518 102.087 181.518 102.69C181.518 103.284 181.059 103.761 180.438 103.761ZM185.878 104.715C187.426 104.742 188.146 103.266 188.119 101.52C188.146 99.7741 187.426 98.3521 185.878 98.3251C184.33 98.3521 183.592 99.7741 183.619 101.52C183.592 103.266 184.33 104.742 185.878 104.715ZM185.878 103.788C184.816 103.788 184.627 102.492 184.627 101.52C184.627 100.557 184.816 99.2431 185.878 99.2431C186.94 99.2431 187.111 100.557 187.111 101.52C187.111 102.492 186.94 103.788 185.878 103.788ZM189.232 105.03H190.015V97.9291H189.232V105.03ZM191.323 104.58H195.022V103.716H193.744V98.4691H191.323V99.3241H192.763V103.716H191.323V104.58ZM198.021 104.706C199.209 104.706 200.154 103.833 200.154 102.762C200.154 102.123 199.812 101.556 199.281 101.205C199.596 100.899 199.785 100.476 199.785 100.008C199.785 99.0721 199.002 98.3071 198.021 98.3071C197.04 98.3071 196.257 99.0721 196.257 100.008C196.257 100.476 196.446 100.899 196.761 101.205C196.23 101.556 195.888 102.123 195.888 102.762C195.888 103.833 196.833 104.706 198.021 104.706ZM198.021 100.827C197.544 100.827 197.184 100.467 197.184 100.008C197.184 99.5401 197.544 99.1801 198.021 99.1801C198.498 99.1801 198.858 99.5401 198.858 100.008C198.858 100.467 198.498 100.827 198.021 100.827ZM198.021 103.851C197.364 103.851 196.878 103.374 196.878 102.771C196.878 102.177 197.364 101.709 198.021 101.709C198.678 101.709 199.164 102.177 199.164 102.771C199.164 103.374 198.678 103.851 198.021 103.851ZM203.281 104.715C204.829 104.742 205.549 103.266 205.522 101.52C205.549 99.7741 204.829 98.3521 203.281 98.3251C201.733 98.3521 200.995 99.7741 201.022 101.52C200.995 103.266 201.733 104.742 203.281 104.715ZM203.281 103.788C202.219 103.788 202.03 102.492 202.03 101.52C202.03 100.557 202.219 99.2431 203.281 99.2431C204.343 99.2431 204.514 100.557 204.514 101.52C204.514 102.492 204.343 103.788 203.281 103.788Z" fill="#191919"/>
<path d="M324.88 433.3H319.83V432.55H324.83L324.88 433.3ZM314.88 433.3H309.88V432.55H314.88V433.3ZM304.88 433.3H299.88V432.55H304.88V433.3ZM294.88 433.3H289.88V432.55H294.88V433.3ZM284.88 433.3H279.88V432.55H284.88V433.3ZM274.88 433.3H269.88V432.55H274.88V433.3ZM264.88 433.3H259.88V432.55H264.88V433.3ZM254.88 433.3H249.88V432.55H254.88V433.3ZM244.88 433.3H239.88V432.55H244.88V433.3ZM234.88 433.3H229.88V432.55H234.88V433.3ZM224.88 433.3H219.88V432.55H224.88V433.3ZM214.88 433.3H209.88V432.55H214.88V433.3ZM204.88 433.3H199.88V432.55H204.88V433.3ZM194.88 433.3H189.88V432.55H194.88V433.3ZM184.88 433.3H179.88V432.55H184.88V433.3ZM174.88 433.3H169.88V432.55H174.88V433.3ZM164.88 433.3H159.88V432.55H164.88V433.3ZM154.88 433.3H149.88V432.55H154.88V433.3ZM144.88 433.3H139.88V432.55H144.88V433.3ZM134.88 433.3H131.7C131.078 433.301 130.457 433.26 129.84 433.18L129.93 432.44C130.518 432.512 131.109 432.549 131.7 432.55H134.88V433.3ZM329.78 431.84L329.37 431.22C329.894 430.876 330.368 430.462 330.78 429.99C331.416 429.276 331.884 428.428 332.15 427.51L332.87 427.71C332.577 428.737 332.054 429.685 331.34 430.48C330.897 431.003 330.382 431.461 329.81 431.84H329.78ZM125 431.61C124.533 431.353 124.085 431.062 123.66 430.74C122.706 430.025 121.866 429.168 121.17 428.2L121.79 427.77C122.435 428.677 123.217 429.477 124.11 430.14C124.511 430.438 124.928 430.711 125.36 430.96L125 431.61ZM119 423.61L118.11 421.61C117.715 420.726 117.461 419.784 117.36 418.82L118.11 418.75C118.205 419.633 118.434 420.497 118.79 421.31L119.69 423.31L119 423.61ZM333.14 422.61H332.39V420.32C332.393 419.447 332.289 418.577 332.08 417.73L332.81 417.55C333.031 418.457 333.142 419.387 333.14 420.32V422.61ZM118.93 414.1L118.26 413.77C119.032 412.216 120.224 410.91 121.7 410L122.1 410.64C120.743 411.477 119.646 412.675 118.93 414.1ZM329.93 413.45C328.916 412.19 327.64 411.167 326.19 410.45L326.53 409.78C328.079 410.549 329.444 411.644 330.53 412.99L329.93 413.45ZM321.54 409.31H316.54V408.56H321.54V409.31ZM311.54 409.31H306.54V408.56H311.54V409.31ZM301.54 409.31H296.54V408.56H301.54V409.31ZM291.54 409.31H286.54V408.56H291.54V409.31ZM281.54 409.31H276.54V408.56H281.54V409.31ZM271.54 409.31H266.54V408.56H271.54V409.31ZM261.54 409.31H256.54V408.56H261.54V409.31ZM251.54 409.31H246.54V408.56H251.54V409.31ZM241.54 409.31H236.54V408.56H241.54V409.31ZM231.54 409.31H226.54V408.56H231.54V409.31ZM221.54 409.31H216.54V408.56H221.54V409.31ZM211.54 409.31H206.54V408.56H211.54V409.31ZM201.54 409.31H196.54V408.56H201.54V409.31ZM191.54 409.31H186.54V408.56H191.54V409.31ZM181.54 409.31H176.54V408.56H181.54V409.31ZM171.54 409.31H166.54V408.56H171.54V409.31ZM161.54 409.31H156.54V408.56H161.54V409.31ZM151.54 409.31H146.54V408.56H151.54V409.31ZM141.54 409.31H136.54V408.56H141.54V409.31ZM131.54 409.31H126.54V408.56H131.54V409.31Z" fill="#3D3D3D"/>
</svg>
