<svg width="740" height="604" viewBox="0 0 740 604" fill="none" xmlns="http://www.w3.org/2000/svg">
<path d="M713.954 603.62H26.0366C19.2295 603.62 12.7011 600.916 7.88767 596.103C3.07426 591.289 0.370117 584.761 0.370117 577.953V26.0266C0.380714 19.2263 3.08954 12.7082 7.9018 7.90342C12.7141 3.09865 19.2364 0.399986 26.0366 0.399994H713.944C717.315 0.399994 720.654 1.06421 723.768 2.3547C726.883 3.6452 729.713 5.53668 732.096 7.9211C734.48 10.3055 736.37 13.1362 737.659 16.2513C738.949 19.3665 739.612 22.7052 739.61 26.0766V578.003C739.61 584.811 736.906 591.339 732.093 596.152C727.279 600.966 720.751 603.67 713.944 603.67" fill="#EAEAEA"/>
<path d="M513.498 539.24H226.134C219.47 539.233 213.081 536.583 208.369 531.871C203.657 527.159 201.007 520.77 201 514.106V90.1343C201.007 83.4703 203.657 77.0811 208.369 72.369C213.081 67.6568 219.47 65.0066 226.134 65H513.498C520.163 65.0066 526.553 67.6566 531.266 72.3685C535.98 77.0804 538.632 83.4695 538.64 90.1343V514.106C538.632 520.771 535.98 527.16 531.266 531.872C526.553 536.583 520.163 539.233 513.498 539.24ZM226.134 68.863C220.495 68.8696 215.088 71.1128 211.101 75.1005C207.113 79.0882 204.87 84.4948 204.863 90.1343V514.106C204.87 519.745 207.113 525.152 211.101 529.14C215.088 533.127 220.495 535.371 226.134 535.377H513.498C519.139 535.373 524.547 533.13 528.537 529.142C532.526 525.155 534.771 519.747 534.777 514.106V90.1343C534.771 84.4934 532.526 79.0855 528.537 75.0976C524.547 71.1096 519.139 68.8674 513.498 68.863H226.134Z" fill="#2D2D2D"/>
<path d="M203.617 513.763C203.13 513.754 202.665 513.557 202.32 513.212C201.976 512.868 201.778 512.403 201.77 511.915L201.502 173.338L278.719 66.3964H279.313L515.864 66.0034L205.122 512.969C204.955 513.214 204.731 513.414 204.468 513.552C204.206 513.691 203.914 513.763 203.617 513.763ZM203.818 174.091L204.086 510.402L511.424 68.3278L279.906 68.7376L203.818 174.091Z" fill="#2D2D2D"/>
<path d="M203.801 392.657L201.903 391.319L430.461 67.7174L356.354 68.4616L203.877 277.429L202.004 276.066L355.176 66.1622L434.968 65.3595L203.801 392.657Z" fill="#2D2D2D"/>
<path d="M242.657 117.813L241.316 119.701L535.746 328.632L537.086 326.743L242.657 117.813Z" fill="#2D2D2D"/>
<path d="M203.948 181.664L202.581 183.534L354.129 294.328L355.496 292.459L203.948 181.664Z" fill="#2D2D2D"/>
<path d="M203.618 275.805L202.252 277.676L312.628 358.252L313.994 356.381L203.618 275.805Z" fill="#2D2D2D"/>
<path d="M203.604 391.564L202.248 393.441L259.36 434.708L260.717 432.83L203.604 391.564Z" fill="#2D2D2D"/>
</svg>
