<svg width="740" height="562" viewBox="0 0 740 562" fill="none" xmlns="http://www.w3.org/2000/svg">
<path d="M713.68 0H25.67C11.4928 0 0 11.4929 0 25.67V535.87C0 550.047 11.4928 561.54 25.67 561.54H713.68C727.857 561.54 739.35 550.047 739.35 535.87V25.67C739.35 11.4929 727.857 0 713.68 0Z" fill="#EAEAEA"/>
<path d="M446 381.5H510" stroke="black"/>
<rect x="89.25" y="114.25" width="541.5" height="332.5" rx="13.75" stroke="black" stroke-width="2.5"/>
<path d="M123.609 182.5L137.36 113.5H201.64L215.391 182.5H123.609Z" stroke="#010101"/>
<path d="M123.615 447.5L137.357 381.5H201.643L215.385 447.5H123.615Z" stroke="#010101"/>
<path d="M123.617 314.5L137.355 249.5H201.645L215.383 314.5H123.617Z" stroke="#010101"/>
<path d="M277.617 314.5L291.355 249.5H355.645L369.383 314.5H277.617Z" stroke="#010101"/>
<path d="M355.612 249.5L369.209 182.5H432.791L446.388 249.5H355.612Z" stroke="#010101"/>
<path d="M277.615 447.5L291.357 381.5H355.643L369.385 447.5H277.615Z" stroke="#010101"/>
<path d="M277.609 182.5L291.36 113.5H355.64L369.391 182.5H277.609Z" stroke="#010101"/>
<path d="M201.61 381.5L215.06 314.5H277.94L291.39 381.5H201.61Z" stroke="#010101"/>
<path d="M355.612 381.5L369.209 314.5H432.791L446.388 381.5H355.612Z" stroke="#010101"/>
<path d="M508.612 381.5L522.209 314.5H585.791L599.388 381.5H508.612Z" stroke="#010101"/>
<path d="M508.613 249.5L522.408 182.5H584.592L598.387 249.5H508.613Z" stroke="#010101"/>
<path d="M432.614 314.5L446.057 249.5H508.943L522.386 314.5H432.614Z" stroke="#010101"/>
<path d="M432.607 182.5L446.062 113.5H508.938L522.393 182.5H432.607Z" stroke="#010101"/>
<path d="M201.61 249.5L215.06 182.5H277.94L291.39 249.5H201.61Z" stroke="#010101"/>
<path d="M277.613 314.5L291.358 381.5H355.642L369.387 314.5H277.613Z" stroke="#010101"/>
<path d="M355.608 113.5L369.211 182.5H432.789L446.392 113.5H355.608Z" stroke="#010101"/>
<path d="M277.613 182.5L291.358 249.5H355.642L369.387 182.5H277.613Z" stroke="#010101"/>
<path d="M201.612 381.5L215.058 447.5H277.942L291.388 381.5H201.612Z" stroke="#010101"/>
<path d="M201.614 249.5L215.057 314.5H277.943L291.386 249.5H201.614Z" stroke="#010101"/>
<path d="M355.615 249.5L369.206 314.5H432.794L446.385 249.5H355.615Z" stroke="#010101"/>
<path d="M432.61 182.5L446.06 249.5H508.94L522.39 182.5H432.61Z" stroke="#010101"/>
<path d="M355.613 381.5L369.208 447.5H432.792L446.387 381.5H355.613Z" stroke="#010101"/>
<path d="M520.65 442.417L521.417 446.139L521.906 446.038L522.208 447.5H523.812V448H527.837V447.5H531.862V448H535.887V447.5H539.913V448H543.938V447.5H547.963V448H551.988V447.5H556.013V448H560.038V447.5H564.063V448H568.088V447.5H572.113V448H576.138V447.5H580.162V448H584.188V447.5H585.792L586.094 446.038L586.583 446.139L587.35 442.417L586.86 442.316L587.627 438.594L588.117 438.694L588.883 434.972L588.394 434.871L589.16 431.149L589.65 431.25L590.417 427.528L589.927 427.427L590.694 423.705L591.183 423.806L591.95 420.083L591.46 419.982L592.227 416.26L592.717 416.361L593.483 412.639L592.994 412.538L593.76 408.816L594.25 408.917L595.017 405.194L594.527 405.094L595.294 401.371L595.783 401.472L596.55 397.75L596.06 397.649L596.827 393.927L597.317 394.028L598.083 390.306L597.594 390.205L598.36 386.482L598.85 386.583L599.617 382.861L599.127 382.76L599.387 381.5H598.083V381H594.25V381.5H590.417V381H586.583V381.5H582.75V381H578.917V381.5H575.083V381H571.25V381.5H567.417V381H563.583V381.5H559.75V381H555.917V381.5H552.083V381H548.25V381.5H544.417V381H540.583V381.5H536.75V381H532.917V381.5H529.083V381H525.25V381.5H521.417V381H517.583V381.5H513.75V381H509.917V381.5H508.613L508.873 382.76L508.383 382.861L509.15 386.583L509.64 386.482L510.406 390.205L509.917 390.306L510.683 394.028L511.173 393.927L511.94 397.649L511.45 397.75L512.217 401.472L512.706 401.371L513.473 405.094L512.983 405.194L513.75 408.917L514.24 408.816L515.006 412.538L514.517 412.639L515.283 416.361L515.773 416.26L516.54 419.982L516.05 420.083L516.817 423.806L517.306 423.705L518.073 427.427L517.583 427.528L518.35 431.25L518.84 431.149L519.606 434.871L519.117 434.972L519.883 438.694L520.373 438.594L521.14 442.316L520.65 442.417Z" stroke="#010101" stroke-dasharray="4 4"/>
<path d="M137.5 249.5L137.989 249.605L138.011 249.501L137.989 249.397L137.5 249.5ZM123.5 314.5L123.011 314.395L122.989 314.496L123.01 314.598L123.5 314.5ZM123.011 183.103L123.448 185.181L124.427 184.975L123.989 182.897L123.011 183.103ZM124.323 189.337L125.198 193.494L126.177 193.288L125.302 189.131L124.323 189.337ZM126.073 197.65L126.948 201.806L127.927 201.6L127.052 197.444L126.073 197.65ZM127.823 205.962L128.698 210.119L129.677 209.913L128.802 205.756L127.823 205.962ZM129.573 214.275L130.448 218.431L131.427 218.225L130.552 214.069L129.573 214.275ZM131.323 222.587L132.198 226.744L133.177 226.538L132.302 222.381L131.323 222.587ZM133.073 230.9L133.948 235.056L134.927 234.85L134.052 230.694L133.073 230.9ZM134.823 239.212L135.698 243.369L136.677 243.163L135.802 239.006L134.823 239.212ZM136.573 247.525L137.011 249.603L137.989 249.397L137.552 247.319L136.573 247.525ZM137.011 249.395L136.574 251.426L137.551 251.637L137.989 249.605L137.011 249.395ZM135.699 255.488L134.824 259.551L135.801 259.762L136.676 255.699L135.699 255.488ZM133.949 263.613L133.074 267.676L134.051 267.887L134.926 263.824L133.949 263.613ZM132.199 271.738L131.324 275.801L132.301 276.012L133.176 271.949L132.199 271.738ZM130.449 279.863L129.574 283.926L130.551 284.137L131.426 280.074L130.449 279.863ZM128.699 287.988L127.824 292.051L128.801 292.262L129.676 288.199L128.699 287.988ZM126.949 296.113L126.074 300.176L127.051 300.387L127.926 296.324L126.949 296.113ZM125.199 304.238L124.324 308.301L125.301 308.512L126.176 304.449L125.199 304.238ZM123.449 312.363L123.011 314.395L123.989 314.605L124.426 312.574L123.449 312.363ZM123.01 314.598L123.385 316.473L124.365 316.277L123.99 314.402L123.01 314.598ZM124.135 320.223L124.885 323.973L125.865 323.777L125.115 320.027L124.135 320.223ZM125.635 327.723L126.385 331.473L127.365 331.277L126.615 327.527L125.635 327.723ZM127.135 335.223L127.885 338.973L128.865 338.777L128.115 335.027L127.135 335.223ZM128.635 342.723L129.385 346.473L130.365 346.277L129.615 342.527L128.635 342.723ZM130.135 350.223L130.885 353.973L131.865 353.777L131.115 350.027L130.135 350.223ZM131.635 357.723L132.385 361.473L133.365 361.277L132.615 357.527L131.635 357.723ZM133.135 365.223L133.885 368.973L134.865 368.777L134.115 365.027L133.135 365.223ZM134.635 372.723L135.385 376.473L136.365 376.277L135.615 372.527L134.635 372.723ZM136.135 380.223L136.51 382.098L137.49 381.902L137.115 380.027L136.135 380.223Z" fill="black"/>
<path d="M586 314.5L598.5 249.5L584.5 182.5L598.5 114" stroke="black" stroke-dasharray="4 4"/>
</svg>
